<?xml version="1.0" encoding="utf-8" standalone="no"?>
<!DOCTYPE svg PUBLIC "-//W3C//DTD SVG 1.1//EN"
  "http://www.w3.org/Graphics/SVG/1.1/DTD/svg11.dtd">
<svg xmlns:xlink="http://www.w3.org/1999/xlink" width="710.647188pt" height="350.51125pt" viewBox="0 0 710.647188 350.51125" xmlns="http://www.w3.org/2000/svg" version="1.1">
 <metadata>
  <rdf:RDF xmlns:dc="http://purl.org/dc/elements/1.1/" xmlns:cc="http://creativecommons.org/ns#" xmlns:rdf="http://www.w3.org/1999/02/22-rdf-syntax-ns#">
   <cc:Work>
    <dc:type rdf:resource="http://purl.org/dc/dcmitype/StillImage"/>
    <dc:date>2026-04-13T17:19:34.377625</dc:date>
    <dc:format>image/svg+xml</dc:format>
    <dc:creator>
     <cc:Agent>
      <dc:title>Matplotlib v3.10.8, https://matplotlib.org/</dc:title>
     </cc:Agent>
    </dc:creator>
   </cc:Work>
  </rdf:RDF>
 </metadata>
 <defs>
  <style type="text/css">*{stroke-linejoin: round; stroke-linecap: butt}</style>
 </defs>
 <g id="figure_1">
  <g id="patch_1">
   <path d="M 0 350.51125 
L 710.647188 350.51125 
L 710.647188 0 
L 0 0 
z
" style="fill: #ffffff"/>
  </g>
  <g id="axes_1">
   <g id="patch_2">
    <path d="M 47.307188 309.957812 
L 703.447188 309.957812 
L 703.447188 32.837812 
L 47.307188 32.837812 
z
" style="fill: #f8f9fa"/>
   </g>
   <g id="matplotlib.axis_1">
    <g id="xtick_1">
     <g id="line2d_1">
      <path d="M 77.131733 309.957812 
L 77.131733 32.837812 
" clip-path="url(#pa652913465)" style="fill: none; stroke: #e9ecef; stroke-opacity: 0.5; stroke-width: 0.8; stroke-linecap: square"/>
     </g>
     <g id="line2d_2">
      <defs>
       <path id="m2843d537b3" d="M 0 0 
L 0 3.5 
" style="stroke: #495057; stroke-width: 0.8"/>
      </defs>
      <g>
       <use xlink:href="#m2843d537b3" x="77.131733" y="309.957812" style="fill: #495057; stroke: #495057; stroke-width: 0.8"/>
      </g>
     </g>
     <g id="text_1">
      <!-- 1 -->
      <g style="fill: #495057" transform="translate(73.632358 325.316094) scale(0.11 -0.11)">
       <defs>
        <path id="DejaVuSans-31" d="M 794 531 
L 1825 531 
L 1825 4091 
L 703 3866 
L 703 4441 
L 1819 4666 
L 2450 4666 
L 2450 531 
L 3481 531 
L 3481 0 
L 794 0 
L 794 531 
z
" transform="scale(0.015625)"/>
       </defs>
       <use xlink:href="#DejaVuSans-31"/>
      </g>
     </g>
    </g>
    <g id="xtick_2">
     <g id="line2d_3">
      <path d="M 226.25446 309.957812 
L 226.25446 32.837812 
" clip-path="url(#pa652913465)" style="fill: none; stroke: #e9ecef; stroke-opacity: 0.5; stroke-width: 0.8; stroke-linecap: square"/>
     </g>
     <g id="line2d_4">
      <g>
       <use xlink:href="#m2843d537b3" x="226.25446" y="309.957812" style="fill: #495057; stroke: #495057; stroke-width: 0.8"/>
      </g>
     </g>
     <g id="text_2">
      <!-- 2 -->
      <g style="fill: #495057" transform="translate(222.755085 325.316094) scale(0.11 -0.11)">
       <defs>
        <path id="DejaVuSans-32" d="M 1228 531 
L 3431 531 
L 3431 0 
L 469 0 
L 469 531 
Q 828 903 1448 1529 
Q 2069 2156 2228 2338 
Q 2531 2678 2651 2914 
Q 2772 3150 2772 3378 
Q 2772 3750 2511 3984 
Q 2250 4219 1831 4219 
Q 1534 4219 1204 4116 
Q 875 4013 500 3803 
L 500 4441 
Q 881 4594 1212 4672 
Q 1544 4750 1819 4750 
Q 2544 4750 2975 4387 
Q 3406 4025 3406 3419 
Q 3406 3131 3298 2873 
Q 3191 2616 2906 2266 
Q 2828 2175 2409 1742 
Q 1991 1309 1228 531 
z
" transform="scale(0.015625)"/>
       </defs>
       <use xlink:href="#DejaVuSans-32"/>
      </g>
     </g>
    </g>
    <g id="xtick_3">
     <g id="line2d_5">
      <path d="M 375.377187 309.957812 
L 375.377187 32.837812 
" clip-path="url(#pa652913465)" style="fill: none; stroke: #e9ecef; stroke-opacity: 0.5; stroke-width: 0.8; stroke-linecap: square"/>
     </g>
     <g id="line2d_6">
      <g>
       <use xlink:href="#m2843d537b3" x="375.377187" y="309.957812" style="fill: #495057; stroke: #495057; stroke-width: 0.8"/>
      </g>
     </g>
     <g id="text_3">
      <!-- 3 -->
      <g style="fill: #495057" transform="translate(371.877813 325.316094) scale(0.11 -0.11)">
       <defs>
        <path id="DejaVuSans-33" d="M 2597 2516 
Q 3050 2419 3304 2112 
Q 3559 1806 3559 1356 
Q 3559 666 3084 287 
Q 2609 -91 1734 -91 
Q 1441 -91 1130 -33 
Q 819 25 488 141 
L 488 750 
Q 750 597 1062 519 
Q 1375 441 1716 441 
Q 2309 441 2620 675 
Q 2931 909 2931 1356 
Q 2931 1769 2642 2001 
Q 2353 2234 1838 2234 
L 1294 2234 
L 1294 2753 
L 1863 2753 
Q 2328 2753 2575 2939 
Q 2822 3125 2822 3475 
Q 2822 3834 2567 4026 
Q 2313 4219 1838 4219 
Q 1578 4219 1281 4162 
Q 984 4106 628 3988 
L 628 4550 
Q 988 4650 1302 4700 
Q 1616 4750 1894 4750 
Q 2613 4750 3031 4423 
Q 3450 4097 3450 3541 
Q 3450 3153 3228 2886 
Q 3006 2619 2597 2516 
z
" transform="scale(0.015625)"/>
       </defs>
       <use xlink:href="#DejaVuSans-33"/>
      </g>
     </g>
    </g>
    <g id="xtick_4">
     <g id="line2d_7">
      <path d="M 524.499915 309.957812 
L 524.499915 32.837812 
" clip-path="url(#pa652913465)" style="fill: none; stroke: #e9ecef; stroke-opacity: 0.5; stroke-width: 0.8; stroke-linecap: square"/>
     </g>
     <g id="line2d_8">
      <g>
       <use xlink:href="#m2843d537b3" x="524.499915" y="309.957812" style="fill: #495057; stroke: #495057; stroke-width: 0.8"/>
      </g>
     </g>
     <g id="text_4">
      <!-- 4 -->
      <g style="fill: #495057" transform="translate(521.00054 325.316094) scale(0.11 -0.11)">
       <defs>
        <path id="DejaVuSans-34" d="M 2419 4116 
L 825 1625 
L 2419 1625 
L 2419 4116 
z
M 2253 4666 
L 3047 4666 
L 3047 1625 
L 3713 1625 
L 3713 1100 
L 3047 1100 
L 3047 0 
L 2419 0 
L 2419 1100 
L 313 1100 
L 313 1709 
L 2253 4666 
z
" transform="scale(0.015625)"/>
       </defs>
       <use xlink:href="#DejaVuSans-34"/>
      </g>
     </g>
    </g>
    <g id="xtick_5">
     <g id="line2d_9">
      <path d="M 673.622642 309.957812 
L 673.622642 32.837812 
" clip-path="url(#pa652913465)" style="fill: none; stroke: #e9ecef; stroke-opacity: 0.5; stroke-width: 0.8; stroke-linecap: square"/>
     </g>
     <g id="line2d_10">
      <g>
       <use xlink:href="#m2843d537b3" x="673.622642" y="309.957812" style="fill: #495057; stroke: #495057; stroke-width: 0.8"/>
      </g>
     </g>
     <g id="text_5">
      <!-- 5 -->
      <g style="fill: #495057" transform="translate(670.123267 325.316094) scale(0.11 -0.11)">
       <defs>
        <path id="DejaVuSans-35" d="M 691 4666 
L 3169 4666 
L 3169 4134 
L 1269 4134 
L 1269 2991 
Q 1406 3038 1543 3061 
Q 1681 3084 1819 3084 
Q 2600 3084 3056 2656 
Q 3513 2228 3513 1497 
Q 3513 744 3044 326 
Q 2575 -91 1722 -91 
Q 1428 -91 1123 -41 
Q 819 9 494 109 
L 494 744 
Q 775 591 1075 516 
Q 1375 441 1709 441 
Q 2250 441 2565 725 
Q 2881 1009 2881 1497 
Q 2881 1984 2565 2268 
Q 2250 2553 1709 2553 
Q 1456 2553 1204 2497 
Q 953 2441 691 2322 
L 691 4666 
z
" transform="scale(0.015625)"/>
       </defs>
       <use xlink:href="#DejaVuSans-35"/>
      </g>
     </g>
    </g>
    <g id="text_6">
     <!-- Training Step -->
     <g style="fill: #212529" transform="translate(330.343437 340.721875) scale(0.12 -0.12)">
      <defs>
       <path id="DejaVuSans-Bold-54" d="M 31 4666 
L 4331 4666 
L 4331 3756 
L 2784 3756 
L 2784 0 
L 1581 0 
L 1581 3756 
L 31 3756 
L 31 4666 
z
" transform="scale(0.015625)"/>
       <path id="DejaVuSans-Bold-72" d="M 3138 2547 
Q 2991 2616 2845 2648 
Q 2700 2681 2553 2681 
Q 2122 2681 1889 2404 
Q 1656 2128 1656 1613 
L 1656 0 
L 538 0 
L 538 3500 
L 1656 3500 
L 1656 2925 
Q 1872 3269 2151 3426 
Q 2431 3584 2822 3584 
Q 2878 3584 2943 3579 
Q 3009 3575 3134 3559 
L 3138 2547 
z
" transform="scale(0.015625)"/>
       <path id="DejaVuSans-Bold-61" d="M 2106 1575 
Q 1756 1575 1579 1456 
Q 1403 1338 1403 1106 
Q 1403 894 1545 773 
Q 1688 653 1941 653 
Q 2256 653 2472 879 
Q 2688 1106 2688 1447 
L 2688 1575 
L 2106 1575 
z
M 3816 1997 
L 3816 0 
L 2688 0 
L 2688 519 
Q 2463 200 2181 54 
Q 1900 -91 1497 -91 
Q 953 -91 614 226 
Q 275 544 275 1050 
Q 275 1666 698 1953 
Q 1122 2241 2028 2241 
L 2688 2241 
L 2688 2328 
Q 2688 2594 2478 2717 
Q 2269 2841 1825 2841 
Q 1466 2841 1156 2769 
Q 847 2697 581 2553 
L 581 3406 
Q 941 3494 1303 3539 
Q 1666 3584 2028 3584 
Q 2975 3584 3395 3211 
Q 3816 2838 3816 1997 
z
" transform="scale(0.015625)"/>
       <path id="DejaVuSans-Bold-69" d="M 538 3500 
L 1656 3500 
L 1656 0 
L 538 0 
L 538 3500 
z
M 538 4863 
L 1656 4863 
L 1656 3950 
L 538 3950 
L 538 4863 
z
" transform="scale(0.015625)"/>
       <path id="DejaVuSans-Bold-6e" d="M 4056 2131 
L 4056 0 
L 2931 0 
L 2931 347 
L 2931 1631 
Q 2931 2084 2911 2256 
Q 2891 2428 2841 2509 
Q 2775 2619 2662 2680 
Q 2550 2741 2406 2741 
Q 2056 2741 1856 2470 
Q 1656 2200 1656 1722 
L 1656 0 
L 538 0 
L 538 3500 
L 1656 3500 
L 1656 2988 
Q 1909 3294 2193 3439 
Q 2478 3584 2822 3584 
Q 3428 3584 3742 3212 
Q 4056 2841 4056 2131 
z
" transform="scale(0.015625)"/>
       <path id="DejaVuSans-Bold-67" d="M 2919 594 
Q 2688 288 2409 144 
Q 2131 0 1766 0 
Q 1125 0 706 504 
Q 288 1009 288 1791 
Q 288 2575 706 3076 
Q 1125 3578 1766 3578 
Q 2131 3578 2409 3434 
Q 2688 3291 2919 2981 
L 2919 3500 
L 4044 3500 
L 4044 353 
Q 4044 -491 3511 -936 
Q 2978 -1381 1966 -1381 
Q 1638 -1381 1331 -1331 
Q 1025 -1281 716 -1178 
L 716 -306 
Q 1009 -475 1290 -558 
Q 1572 -641 1856 -641 
Q 2406 -641 2662 -400 
Q 2919 -159 2919 353 
L 2919 594 
z
M 2181 2772 
Q 1834 2772 1640 2515 
Q 1447 2259 1447 1791 
Q 1447 1309 1634 1061 
Q 1822 813 2181 813 
Q 2531 813 2725 1069 
Q 2919 1325 2919 1791 
Q 2919 2259 2725 2515 
Q 2531 2772 2181 2772 
z
" transform="scale(0.015625)"/>
       <path id="DejaVuSans-Bold-20" transform="scale(0.015625)"/>
       <path id="DejaVuSans-Bold-53" d="M 3834 4519 
L 3834 3531 
Q 3450 3703 3084 3790 
Q 2719 3878 2394 3878 
Q 1963 3878 1756 3759 
Q 1550 3641 1550 3391 
Q 1550 3203 1689 3098 
Q 1828 2994 2194 2919 
L 2706 2816 
Q 3484 2659 3812 2340 
Q 4141 2022 4141 1434 
Q 4141 663 3683 286 
Q 3225 -91 2284 -91 
Q 1841 -91 1394 -6 
Q 947 78 500 244 
L 500 1259 
Q 947 1022 1364 901 
Q 1781 781 2169 781 
Q 2563 781 2772 912 
Q 2981 1044 2981 1288 
Q 2981 1506 2839 1625 
Q 2697 1744 2272 1838 
L 1806 1941 
Q 1106 2091 782 2419 
Q 459 2747 459 3303 
Q 459 4000 909 4375 
Q 1359 4750 2203 4750 
Q 2588 4750 2994 4692 
Q 3400 4634 3834 4519 
z
" transform="scale(0.015625)"/>
       <path id="DejaVuSans-Bold-74" d="M 1759 4494 
L 1759 3500 
L 2913 3500 
L 2913 2700 
L 1759 2700 
L 1759 1216 
Q 1759 972 1856 886 
Q 1953 800 2241 800 
L 2816 800 
L 2816 0 
L 1856 0 
Q 1194 0 917 276 
Q 641 553 641 1216 
L 641 2700 
L 84 2700 
L 84 3500 
L 641 3500 
L 641 4494 
L 1759 4494 
z
" transform="scale(0.015625)"/>
       <path id="DejaVuSans-Bold-65" d="M 4031 1759 
L 4031 1441 
L 1416 1441 
Q 1456 1047 1700 850 
Q 1944 653 2381 653 
Q 2734 653 3104 758 
Q 3475 863 3866 1075 
L 3866 213 
Q 3469 63 3072 -14 
Q 2675 -91 2278 -91 
Q 1328 -91 801 392 
Q 275 875 275 1747 
Q 275 2603 792 3093 
Q 1309 3584 2216 3584 
Q 3041 3584 3536 3087 
Q 4031 2591 4031 1759 
z
M 2881 2131 
Q 2881 2450 2695 2645 
Q 2509 2841 2209 2841 
Q 1884 2841 1681 2658 
Q 1478 2475 1428 2131 
L 2881 2131 
z
" transform="scale(0.015625)"/>
       <path id="DejaVuSans-Bold-70" d="M 1656 506 
L 1656 -1331 
L 538 -1331 
L 538 3500 
L 1656 3500 
L 1656 2988 
Q 1888 3294 2169 3439 
Q 2450 3584 2816 3584 
Q 3463 3584 3878 3070 
Q 4294 2556 4294 1747 
Q 4294 938 3878 423 
Q 3463 -91 2816 -91 
Q 2450 -91 2169 54 
Q 1888 200 1656 506 
z
M 2400 2772 
Q 2041 2772 1848 2508 
Q 1656 2244 1656 1747 
Q 1656 1250 1848 986 
Q 2041 722 2400 722 
Q 2759 722 2948 984 
Q 3138 1247 3138 1747 
Q 3138 2247 2948 2509 
Q 2759 2772 2400 2772 
z
" transform="scale(0.015625)"/>
      </defs>
      <use xlink:href="#DejaVuSans-Bold-54"/>
      <use xlink:href="#DejaVuSans-Bold-72" transform="translate(57.212891 0)"/>
      <use xlink:href="#DejaVuSans-Bold-61" transform="translate(106.529297 0)"/>
      <use xlink:href="#DejaVuSans-Bold-69" transform="translate(174.009766 0)"/>
      <use xlink:href="#DejaVuSans-Bold-6e" transform="translate(208.287109 0)"/>
      <use xlink:href="#DejaVuSans-Bold-69" transform="translate(279.478516 0)"/>
      <use xlink:href="#DejaVuSans-Bold-6e" transform="translate(313.755859 0)"/>
      <use xlink:href="#DejaVuSans-Bold-67" transform="translate(384.947266 0)"/>
      <use xlink:href="#DejaVuSans-Bold-20" transform="translate(456.529297 0)"/>
      <use xlink:href="#DejaVuSans-Bold-53" transform="translate(491.34375 0)"/>
      <use xlink:href="#DejaVuSans-Bold-74" transform="translate(563.365234 0)"/>
      <use xlink:href="#DejaVuSans-Bold-65" transform="translate(611.167969 0)"/>
      <use xlink:href="#DejaVuSans-Bold-70" transform="translate(678.990234 0)"/>
     </g>
    </g>
   </g>
   <g id="matplotlib.axis_2">
    <g id="ytick_1">
     <g id="line2d_11">
      <path d="M 47.307188 309.957812 
L 703.447188 309.957812 
" clip-path="url(#pa652913465)" style="fill: none; stroke: #e9ecef; stroke-opacity: 0.5; stroke-width: 0.8; stroke-linecap: square"/>
     </g>
     <g id="line2d_12">
      <defs>
       <path id="m722a17b7d0" d="M 0 0 
L -3.5 0 
" style="stroke: #495057; stroke-width: 0.8"/>
      </defs>
      <g>
       <use xlink:href="#m722a17b7d0" x="47.307188" y="309.957812" style="fill: #495057; stroke: #495057; stroke-width: 0.8"/>
      </g>
     </g>
     <g id="text_7">
      <!-- 1.2 -->
      <g style="fill: #495057" transform="translate(22.81375 314.136953) scale(0.11 -0.11)">
       <defs>
        <path id="DejaVuSans-2e" d="M 684 794 
L 1344 794 
L 1344 0 
L 684 0 
L 684 794 
z
" transform="scale(0.015625)"/>
       </defs>
       <use xlink:href="#DejaVuSans-31"/>
       <use xlink:href="#DejaVuSans-2e" transform="translate(63.623047 0)"/>
       <use xlink:href="#DejaVuSans-32" transform="translate(95.410156 0)"/>
      </g>
     </g>
    </g>
    <g id="ytick_2">
     <g id="line2d_13">
      <path d="M 47.307188 267.323966 
L 703.447188 267.323966 
" clip-path="url(#pa652913465)" style="fill: none; stroke: #e9ecef; stroke-opacity: 0.5; stroke-width: 0.8; stroke-linecap: square"/>
     </g>
     <g id="line2d_14">
      <g>
       <use xlink:href="#m722a17b7d0" x="47.307188" y="267.323966" style="fill: #495057; stroke: #495057; stroke-width: 0.8"/>
      </g>
     </g>
     <g id="text_8">
      <!-- 1.4 -->
      <g style="fill: #495057" transform="translate(22.81375 271.503107) scale(0.11 -0.11)">
       <use xlink:href="#DejaVuSans-31"/>
       <use xlink:href="#DejaVuSans-2e" transform="translate(63.623047 0)"/>
       <use xlink:href="#DejaVuSans-34" transform="translate(95.410156 0)"/>
      </g>
     </g>
    </g>
    <g id="ytick_3">
     <g id="line2d_15">
      <path d="M 47.307188 224.69012 
L 703.447188 224.69012 
" clip-path="url(#pa652913465)" style="fill: none; stroke: #e9ecef; stroke-opacity: 0.5; stroke-width: 0.8; stroke-linecap: square"/>
     </g>
     <g id="line2d_16">
      <g>
       <use xlink:href="#m722a17b7d0" x="47.307188" y="224.69012" style="fill: #495057; stroke: #495057; stroke-width: 0.8"/>
      </g>
     </g>
     <g id="text_9">
      <!-- 1.6 -->
      <g style="fill: #495057" transform="translate(22.81375 228.869261) scale(0.11 -0.11)">
       <defs>
        <path id="DejaVuSans-36" d="M 2113 2584 
Q 1688 2584 1439 2293 
Q 1191 2003 1191 1497 
Q 1191 994 1439 701 
Q 1688 409 2113 409 
Q 2538 409 2786 701 
Q 3034 994 3034 1497 
Q 3034 2003 2786 2293 
Q 2538 2584 2113 2584 
z
M 3366 4563 
L 3366 3988 
Q 3128 4100 2886 4159 
Q 2644 4219 2406 4219 
Q 1781 4219 1451 3797 
Q 1122 3375 1075 2522 
Q 1259 2794 1537 2939 
Q 1816 3084 2150 3084 
Q 2853 3084 3261 2657 
Q 3669 2231 3669 1497 
Q 3669 778 3244 343 
Q 2819 -91 2113 -91 
Q 1303 -91 875 529 
Q 447 1150 447 2328 
Q 447 3434 972 4092 
Q 1497 4750 2381 4750 
Q 2619 4750 2861 4703 
Q 3103 4656 3366 4563 
z
" transform="scale(0.015625)"/>
       </defs>
       <use xlink:href="#DejaVuSans-31"/>
       <use xlink:href="#DejaVuSans-2e" transform="translate(63.623047 0)"/>
       <use xlink:href="#DejaVuSans-36" transform="translate(95.410156 0)"/>
      </g>
     </g>
    </g>
    <g id="ytick_4">
     <g id="line2d_17">
      <path d="M 47.307188 182.056274 
L 703.447188 182.056274 
" clip-path="url(#pa652913465)" style="fill: none; stroke: #e9ecef; stroke-opacity: 0.5; stroke-width: 0.8; stroke-linecap: square"/>
     </g>
     <g id="line2d_18">
      <g>
       <use xlink:href="#m722a17b7d0" x="47.307188" y="182.056274" style="fill: #495057; stroke: #495057; stroke-width: 0.8"/>
      </g>
     </g>
     <g id="text_10">
      <!-- 1.8 -->
      <g style="fill: #495057" transform="translate(22.81375 186.235415) scale(0.11 -0.11)">
       <defs>
        <path id="DejaVuSans-38" d="M 2034 2216 
Q 1584 2216 1326 1975 
Q 1069 1734 1069 1313 
Q 1069 891 1326 650 
Q 1584 409 2034 409 
Q 2484 409 2743 651 
Q 3003 894 3003 1313 
Q 3003 1734 2745 1975 
Q 2488 2216 2034 2216 
z
M 1403 2484 
Q 997 2584 770 2862 
Q 544 3141 544 3541 
Q 544 4100 942 4425 
Q 1341 4750 2034 4750 
Q 2731 4750 3128 4425 
Q 3525 4100 3525 3541 
Q 3525 3141 3298 2862 
Q 3072 2584 2669 2484 
Q 3125 2378 3379 2068 
Q 3634 1759 3634 1313 
Q 3634 634 3220 271 
Q 2806 -91 2034 -91 
Q 1263 -91 848 271 
Q 434 634 434 1313 
Q 434 1759 690 2068 
Q 947 2378 1403 2484 
z
M 1172 3481 
Q 1172 3119 1398 2916 
Q 1625 2713 2034 2713 
Q 2441 2713 2670 2916 
Q 2900 3119 2900 3481 
Q 2900 3844 2670 4047 
Q 2441 4250 2034 4250 
Q 1625 4250 1398 4047 
Q 1172 3844 1172 3481 
z
" transform="scale(0.015625)"/>
       </defs>
       <use xlink:href="#DejaVuSans-31"/>
       <use xlink:href="#DejaVuSans-2e" transform="translate(63.623047 0)"/>
       <use xlink:href="#DejaVuSans-38" transform="translate(95.410156 0)"/>
      </g>
     </g>
    </g>
    <g id="ytick_5">
     <g id="line2d_19">
      <path d="M 47.307188 139.422428 
L 703.447188 139.422428 
" clip-path="url(#pa652913465)" style="fill: none; stroke: #e9ecef; stroke-opacity: 0.5; stroke-width: 0.8; stroke-linecap: square"/>
     </g>
     <g id="line2d_20">
      <g>
       <use xlink:href="#m722a17b7d0" x="47.307188" y="139.422428" style="fill: #495057; stroke: #495057; stroke-width: 0.8"/>
      </g>
     </g>
     <g id="text_11">
      <!-- 2.0 -->
      <g style="fill: #495057" transform="translate(22.81375 143.601569) scale(0.11 -0.11)">
       <defs>
        <path id="DejaVuSans-30" d="M 2034 4250 
Q 1547 4250 1301 3770 
Q 1056 3291 1056 2328 
Q 1056 1369 1301 889 
Q 1547 409 2034 409 
Q 2525 409 2770 889 
Q 3016 1369 3016 2328 
Q 3016 3291 2770 3770 
Q 2525 4250 2034 4250 
z
M 2034 4750 
Q 2819 4750 3233 4129 
Q 3647 3509 3647 2328 
Q 3647 1150 3233 529 
Q 2819 -91 2034 -91 
Q 1250 -91 836 529 
Q 422 1150 422 2328 
Q 422 3509 836 4129 
Q 1250 4750 2034 4750 
z
" transform="scale(0.015625)"/>
       </defs>
       <use xlink:href="#DejaVuSans-32"/>
       <use xlink:href="#DejaVuSans-2e" transform="translate(63.623047 0)"/>
       <use xlink:href="#DejaVuSans-30" transform="translate(95.410156 0)"/>
      </g>
     </g>
    </g>
    <g id="ytick_6">
     <g id="line2d_21">
      <path d="M 47.307188 96.788582 
L 703.447188 96.788582 
" clip-path="url(#pa652913465)" style="fill: none; stroke: #e9ecef; stroke-opacity: 0.5; stroke-width: 0.8; stroke-linecap: square"/>
     </g>
     <g id="line2d_22">
      <g>
       <use xlink:href="#m722a17b7d0" x="47.307188" y="96.788582" style="fill: #495057; stroke: #495057; stroke-width: 0.8"/>
      </g>
     </g>
     <g id="text_12">
      <!-- 2.2 -->
      <g style="fill: #495057" transform="translate(22.81375 100.967722) scale(0.11 -0.11)">
       <use xlink:href="#DejaVuSans-32"/>
       <use xlink:href="#DejaVuSans-2e" transform="translate(63.623047 0)"/>
       <use xlink:href="#DejaVuSans-32" transform="translate(95.410156 0)"/>
      </g>
     </g>
    </g>
    <g id="ytick_7">
     <g id="line2d_23">
      <path d="M 47.307188 54.154736 
L 703.447188 54.154736 
" clip-path="url(#pa652913465)" style="fill: none; stroke: #e9ecef; stroke-opacity: 0.5; stroke-width: 0.8; stroke-linecap: square"/>
     </g>
     <g id="line2d_24">
      <g>
       <use xlink:href="#m722a17b7d0" x="47.307188" y="54.154736" style="fill: #495057; stroke: #495057; stroke-width: 0.8"/>
      </g>
     </g>
     <g id="text_13">
      <!-- 2.4 -->
      <g style="fill: #495057" transform="translate(22.81375 58.333876) scale(0.11 -0.11)">
       <use xlink:href="#DejaVuSans-32"/>
       <use xlink:href="#DejaVuSans-2e" transform="translate(63.623047 0)"/>
       <use xlink:href="#DejaVuSans-34" transform="translate(95.410156 0)"/>
      </g>
     </g>
    </g>
    <g id="text_14">
     <!-- Loss -->
     <g style="fill: #212529" transform="translate(16.318125 186.485) rotate(-90) scale(0.12 -0.12)">
      <defs>
       <path id="DejaVuSans-Bold-4c" d="M 588 4666 
L 1791 4666 
L 1791 909 
L 3903 909 
L 3903 0 
L 588 0 
L 588 4666 
z
" transform="scale(0.015625)"/>
       <path id="DejaVuSans-Bold-6f" d="M 2203 2784 
Q 1831 2784 1636 2517 
Q 1441 2250 1441 1747 
Q 1441 1244 1636 976 
Q 1831 709 2203 709 
Q 2569 709 2762 976 
Q 2956 1244 2956 1747 
Q 2956 2250 2762 2517 
Q 2569 2784 2203 2784 
z
M 2203 3584 
Q 3106 3584 3614 3096 
Q 4122 2609 4122 1747 
Q 4122 884 3614 396 
Q 3106 -91 2203 -91 
Q 1297 -91 786 396 
Q 275 884 275 1747 
Q 275 2609 786 3096 
Q 1297 3584 2203 3584 
z
" transform="scale(0.015625)"/>
       <path id="DejaVuSans-Bold-73" d="M 3272 3391 
L 3272 2541 
Q 2913 2691 2578 2766 
Q 2244 2841 1947 2841 
Q 1628 2841 1473 2761 
Q 1319 2681 1319 2516 
Q 1319 2381 1436 2309 
Q 1553 2238 1856 2203 
L 2053 2175 
Q 2913 2066 3209 1816 
Q 3506 1566 3506 1031 
Q 3506 472 3093 190 
Q 2681 -91 1863 -91 
Q 1516 -91 1145 -36 
Q 775 19 384 128 
L 384 978 
Q 719 816 1070 734 
Q 1422 653 1784 653 
Q 2113 653 2278 743 
Q 2444 834 2444 1013 
Q 2444 1163 2330 1236 
Q 2216 1309 1875 1350 
L 1678 1375 
Q 931 1469 631 1722 
Q 331 1975 331 2491 
Q 331 3047 712 3315 
Q 1094 3584 1881 3584 
Q 2191 3584 2531 3537 
Q 2872 3491 3272 3391 
z
" transform="scale(0.015625)"/>
      </defs>
      <use xlink:href="#DejaVuSans-Bold-4c"/>
      <use xlink:href="#DejaVuSans-Bold-6f" transform="translate(63.720703 0)"/>
      <use xlink:href="#DejaVuSans-Bold-73" transform="translate(132.421875 0)"/>
      <use xlink:href="#DejaVuSans-Bold-73" transform="translate(191.943359 0)"/>
     </g>
    </g>
   </g>
   <g id="patch_3">
    <path d="M 47.307188 309.957812 
L 47.307188 32.837812 
" style="fill: none; stroke: #dee2e6; stroke-width: 0.8; stroke-linejoin: miter; stroke-linecap: square"/>
   </g>
   <g id="patch_4">
    <path d="M 703.447188 309.957812 
L 703.447188 32.837812 
" style="fill: none; stroke: #dee2e6; stroke-width: 0.8; stroke-linejoin: miter; stroke-linecap: square"/>
   </g>
   <g id="patch_5">
    <path d="M 47.307188 309.957812 
L 703.447188 309.957812 
" style="fill: none; stroke: #dee2e6; stroke-width: 0.8; stroke-linejoin: miter; stroke-linecap: square"/>
   </g>
   <g id="patch_6">
    <path d="M 47.307188 32.837812 
L 703.447188 32.837812 
" style="fill: none; stroke: #dee2e6; stroke-width: 0.8; stroke-linejoin: miter; stroke-linecap: square"/>
   </g>
   <g id="text_15">
    <!-- Training Loss Curves — Qwen2.5-7B-Instruct (5-step dry run) -->
    <g style="fill: #212529" transform="translate(135.227969 17.837812) scale(0.14 -0.14)">
     <defs>
      <path id="DejaVuSans-Bold-43" d="M 4288 256 
Q 3956 84 3597 -3 
Q 3238 -91 2847 -91 
Q 1681 -91 1000 561 
Q 319 1213 319 2328 
Q 319 3447 1000 4098 
Q 1681 4750 2847 4750 
Q 3238 4750 3597 4662 
Q 3956 4575 4288 4403 
L 4288 3438 
Q 3953 3666 3628 3772 
Q 3303 3878 2944 3878 
Q 2300 3878 1931 3465 
Q 1563 3053 1563 2328 
Q 1563 1606 1931 1193 
Q 2300 781 2944 781 
Q 3303 781 3628 887 
Q 3953 994 4288 1222 
L 4288 256 
z
" transform="scale(0.015625)"/>
      <path id="DejaVuSans-Bold-75" d="M 500 1363 
L 500 3500 
L 1625 3500 
L 1625 3150 
Q 1625 2866 1622 2436 
Q 1619 2006 1619 1863 
Q 1619 1441 1641 1255 
Q 1663 1069 1716 984 
Q 1784 875 1895 815 
Q 2006 756 2150 756 
Q 2500 756 2700 1025 
Q 2900 1294 2900 1772 
L 2900 3500 
L 4019 3500 
L 4019 0 
L 2900 0 
L 2900 506 
Q 2647 200 2364 54 
Q 2081 -91 1741 -91 
Q 1134 -91 817 281 
Q 500 653 500 1363 
z
" transform="scale(0.015625)"/>
      <path id="DejaVuSans-Bold-76" d="M 97 3500 
L 1216 3500 
L 2088 1081 
L 2956 3500 
L 4078 3500 
L 2700 0 
L 1472 0 
L 97 3500 
z
" transform="scale(0.015625)"/>
      <path id="DejaVuSans-Bold-2014" d="M 344 2156 
L 6056 2156 
L 6056 1350 
L 344 1350 
L 344 2156 
z
" transform="scale(0.015625)"/>
      <path id="DejaVuSans-Bold-51" d="M 2847 -84 
L 2753 -84 
Q 1600 -84 959 553 
Q 319 1191 319 2328 
Q 319 3463 958 4106 
Q 1597 4750 2719 4750 
Q 3853 4750 4486 4112 
Q 5119 3475 5119 2328 
Q 5119 1541 4783 972 
Q 4447 403 3816 116 
L 4756 -934 
L 3609 -934 
L 2847 -84 
z
M 2719 3878 
Q 2169 3878 1866 3472 
Q 1563 3066 1563 2328 
Q 1563 1578 1859 1179 
Q 2156 781 2719 781 
Q 3272 781 3575 1187 
Q 3878 1594 3878 2328 
Q 3878 3066 3575 3472 
Q 3272 3878 2719 3878 
z
" transform="scale(0.015625)"/>
      <path id="DejaVuSans-Bold-77" d="M 225 3500 
L 1313 3500 
L 1900 1088 
L 2491 3500 
L 3425 3500 
L 4013 1113 
L 4603 3500 
L 5691 3500 
L 4769 0 
L 3547 0 
L 2956 2406 
L 2369 0 
L 1147 0 
L 225 3500 
z
" transform="scale(0.015625)"/>
      <path id="DejaVuSans-Bold-32" d="M 1844 884 
L 3897 884 
L 3897 0 
L 506 0 
L 506 884 
L 2209 2388 
Q 2438 2594 2547 2791 
Q 2656 2988 2656 3200 
Q 2656 3528 2436 3728 
Q 2216 3928 1850 3928 
Q 1569 3928 1234 3808 
Q 900 3688 519 3450 
L 519 4475 
Q 925 4609 1322 4679 
Q 1719 4750 2100 4750 
Q 2938 4750 3402 4381 
Q 3866 4013 3866 3353 
Q 3866 2972 3669 2642 
Q 3472 2313 2841 1759 
L 1844 884 
z
" transform="scale(0.015625)"/>
      <path id="DejaVuSans-Bold-2e" d="M 653 1209 
L 1778 1209 
L 1778 0 
L 653 0 
L 653 1209 
z
" transform="scale(0.015625)"/>
      <path id="DejaVuSans-Bold-35" d="M 678 4666 
L 3669 4666 
L 3669 3781 
L 1638 3781 
L 1638 3059 
Q 1775 3097 1914 3117 
Q 2053 3138 2203 3138 
Q 3056 3138 3531 2711 
Q 4006 2284 4006 1522 
Q 4006 766 3489 337 
Q 2972 -91 2053 -91 
Q 1656 -91 1267 -14 
Q 878 63 494 219 
L 494 1166 
Q 875 947 1217 837 
Q 1559 728 1863 728 
Q 2300 728 2551 942 
Q 2803 1156 2803 1522 
Q 2803 1891 2551 2103 
Q 2300 2316 1863 2316 
Q 1603 2316 1309 2248 
Q 1016 2181 678 2041 
L 678 4666 
z
" transform="scale(0.015625)"/>
      <path id="DejaVuSans-Bold-2d" d="M 347 2297 
L 2309 2297 
L 2309 1388 
L 347 1388 
L 347 2297 
z
" transform="scale(0.015625)"/>
      <path id="DejaVuSans-Bold-37" d="M 428 4666 
L 3944 4666 
L 3944 3988 
L 2125 0 
L 953 0 
L 2675 3781 
L 428 3781 
L 428 4666 
z
" transform="scale(0.015625)"/>
      <path id="DejaVuSans-Bold-42" d="M 2456 2859 
Q 2741 2859 2887 2984 
Q 3034 3109 3034 3353 
Q 3034 3594 2887 3720 
Q 2741 3847 2456 3847 
L 1791 3847 
L 1791 2859 
L 2456 2859 
z
M 2497 819 
Q 2859 819 3042 972 
Q 3225 1125 3225 1434 
Q 3225 1738 3044 1889 
Q 2863 2041 2497 2041 
L 1791 2041 
L 1791 819 
L 2497 819 
z
M 3616 2497 
Q 4003 2384 4215 2081 
Q 4428 1778 4428 1338 
Q 4428 663 3972 331 
Q 3516 0 2584 0 
L 588 0 
L 588 4666 
L 2394 4666 
Q 3366 4666 3802 4372 
Q 4238 4078 4238 3431 
Q 4238 3091 4078 2852 
Q 3919 2613 3616 2497 
z
" transform="scale(0.015625)"/>
      <path id="DejaVuSans-Bold-49" d="M 588 4666 
L 1791 4666 
L 1791 0 
L 588 0 
L 588 4666 
z
" transform="scale(0.015625)"/>
      <path id="DejaVuSans-Bold-63" d="M 3366 3391 
L 3366 2478 
Q 3138 2634 2908 2709 
Q 2678 2784 2431 2784 
Q 1963 2784 1702 2511 
Q 1441 2238 1441 1747 
Q 1441 1256 1702 982 
Q 1963 709 2431 709 
Q 2694 709 2930 787 
Q 3166 866 3366 1019 
L 3366 103 
Q 3103 6 2833 -42 
Q 2563 -91 2291 -91 
Q 1344 -91 809 395 
Q 275 881 275 1747 
Q 275 2613 809 3098 
Q 1344 3584 2291 3584 
Q 2566 3584 2833 3536 
Q 3100 3488 3366 3391 
z
" transform="scale(0.015625)"/>
      <path id="DejaVuSans-Bold-28" d="M 2413 -844 
L 1484 -844 
Q 1006 -72 778 623 
Q 550 1319 550 2003 
Q 550 2688 779 3389 
Q 1009 4091 1484 4856 
L 2413 4856 
Q 2013 4116 1813 3408 
Q 1613 2700 1613 2009 
Q 1613 1319 1811 609 
Q 2009 -100 2413 -844 
z
" transform="scale(0.015625)"/>
      <path id="DejaVuSans-Bold-64" d="M 2919 2988 
L 2919 4863 
L 4044 4863 
L 4044 0 
L 2919 0 
L 2919 506 
Q 2688 197 2409 53 
Q 2131 -91 1766 -91 
Q 1119 -91 703 423 
Q 288 938 288 1747 
Q 288 2556 703 3070 
Q 1119 3584 1766 3584 
Q 2128 3584 2408 3439 
Q 2688 3294 2919 2988 
z
M 2181 722 
Q 2541 722 2730 984 
Q 2919 1247 2919 1747 
Q 2919 2247 2730 2509 
Q 2541 2772 2181 2772 
Q 1825 2772 1636 2509 
Q 1447 2247 1447 1747 
Q 1447 1247 1636 984 
Q 1825 722 2181 722 
z
" transform="scale(0.015625)"/>
      <path id="DejaVuSans-Bold-79" d="M 78 3500 
L 1197 3500 
L 2138 1125 
L 2938 3500 
L 4056 3500 
L 2584 -331 
Q 2363 -916 2067 -1148 
Q 1772 -1381 1288 -1381 
L 641 -1381 
L 641 -647 
L 991 -647 
Q 1275 -647 1404 -556 
Q 1534 -466 1606 -231 
L 1638 -134 
L 78 3500 
z
" transform="scale(0.015625)"/>
      <path id="DejaVuSans-Bold-29" d="M 513 -844 
Q 913 -100 1113 609 
Q 1313 1319 1313 2009 
Q 1313 2700 1113 3408 
Q 913 4116 513 4856 
L 1441 4856 
Q 1916 4091 2145 3389 
Q 2375 2688 2375 2003 
Q 2375 1319 2147 623 
Q 1919 -72 1441 -844 
L 513 -844 
z
" transform="scale(0.015625)"/>
     </defs>
     <use xlink:href="#DejaVuSans-Bold-54"/>
     <use xlink:href="#DejaVuSans-Bold-72" transform="translate(57.212891 0)"/>
     <use xlink:href="#DejaVuSans-Bold-61" transform="translate(106.529297 0)"/>
     <use xlink:href="#DejaVuSans-Bold-69" transform="translate(174.009766 0)"/>
     <use xlink:href="#DejaVuSans-Bold-6e" transform="translate(208.287109 0)"/>
     <use xlink:href="#DejaVuSans-Bold-69" transform="translate(279.478516 0)"/>
     <use xlink:href="#DejaVuSans-Bold-6e" transform="translate(313.755859 0)"/>
     <use xlink:href="#DejaVuSans-Bold-67" transform="translate(384.947266 0)"/>
     <use xlink:href="#DejaVuSans-Bold-20" transform="translate(456.529297 0)"/>
     <use xlink:href="#DejaVuSans-Bold-4c" transform="translate(491.34375 0)"/>
     <use xlink:href="#DejaVuSans-Bold-6f" transform="translate(555.064453 0)"/>
     <use xlink:href="#DejaVuSans-Bold-73" transform="translate(623.765625 0)"/>
     <use xlink:href="#DejaVuSans-Bold-73" transform="translate(683.287109 0)"/>
     <use xlink:href="#DejaVuSans-Bold-20" transform="translate(742.808594 0)"/>
     <use xlink:href="#DejaVuSans-Bold-43" transform="translate(777.623047 0)"/>
     <use xlink:href="#DejaVuSans-Bold-75" transform="translate(851.011719 0)"/>
     <use xlink:href="#DejaVuSans-Bold-72" transform="translate(922.203125 0)"/>
     <use xlink:href="#DejaVuSans-Bold-76" transform="translate(971.519531 0)"/>
     <use xlink:href="#DejaVuSans-Bold-65" transform="translate(1036.705078 0)"/>
     <use xlink:href="#DejaVuSans-Bold-73" transform="translate(1104.527344 0)"/>
     <use xlink:href="#DejaVuSans-Bold-20" transform="translate(1164.048828 0)"/>
     <use xlink:href="#DejaVuSans-Bold-2014" transform="translate(1198.863281 0)"/>
     <use xlink:href="#DejaVuSans-Bold-20" transform="translate(1298.863281 0)"/>
     <use xlink:href="#DejaVuSans-Bold-51" transform="translate(1333.677734 0)"/>
     <use xlink:href="#DejaVuSans-Bold-77" transform="translate(1418.6875 0)"/>
     <use xlink:href="#DejaVuSans-Bold-65" transform="translate(1511.070312 0)"/>
     <use xlink:href="#DejaVuSans-Bold-6e" transform="translate(1578.892578 0)"/>
     <use xlink:href="#DejaVuSans-Bold-32" transform="translate(1650.083984 0)"/>
     <use xlink:href="#DejaVuSans-Bold-2e" transform="translate(1719.664062 0)"/>
     <use xlink:href="#DejaVuSans-Bold-35" transform="translate(1757.652344 0)"/>
     <use xlink:href="#DejaVuSans-Bold-2d" transform="translate(1827.232422 0)"/>
     <use xlink:href="#DejaVuSans-Bold-37" transform="translate(1868.736328 0)"/>
     <use xlink:href="#DejaVuSans-Bold-42" transform="translate(1938.316406 0)"/>
     <use xlink:href="#DejaVuSans-Bold-2d" transform="translate(2014.537109 0)"/>
     <use xlink:href="#DejaVuSans-Bold-49" transform="translate(2056.041016 0)"/>
     <use xlink:href="#DejaVuSans-Bold-6e" transform="translate(2093.248047 0)"/>
     <use xlink:href="#DejaVuSans-Bold-73" transform="translate(2164.439453 0)"/>
     <use xlink:href="#DejaVuSans-Bold-74" transform="translate(2223.960938 0)"/>
     <use xlink:href="#DejaVuSans-Bold-72" transform="translate(2271.763672 0)"/>
     <use xlink:href="#DejaVuSans-Bold-75" transform="translate(2321.080078 0)"/>
     <use xlink:href="#DejaVuSans-Bold-63" transform="translate(2392.271484 0)"/>
     <use xlink:href="#DejaVuSans-Bold-74" transform="translate(2451.548828 0)"/>
     <use xlink:href="#DejaVuSans-Bold-20" transform="translate(2499.351562 0)"/>
     <use xlink:href="#DejaVuSans-Bold-28" transform="translate(2534.166016 0)"/>
     <use xlink:href="#DejaVuSans-Bold-35" transform="translate(2579.869141 0)"/>
     <use xlink:href="#DejaVuSans-Bold-2d" transform="translate(2649.449219 0)"/>
     <use xlink:href="#DejaVuSans-Bold-73" transform="translate(2690.953125 0)"/>
     <use xlink:href="#DejaVuSans-Bold-74" transform="translate(2750.474609 0)"/>
     <use xlink:href="#DejaVuSans-Bold-65" transform="translate(2798.277344 0)"/>
     <use xlink:href="#DejaVuSans-Bold-70" transform="translate(2866.099609 0)"/>
     <use xlink:href="#DejaVuSans-Bold-20" transform="translate(2937.681641 0)"/>
     <use xlink:href="#DejaVuSans-Bold-64" transform="translate(2972.496094 0)"/>
     <use xlink:href="#DejaVuSans-Bold-72" transform="translate(3044.078125 0)"/>
     <use xlink:href="#DejaVuSans-Bold-79" transform="translate(3093.394531 0)"/>
     <use xlink:href="#DejaVuSans-Bold-20" transform="translate(3158.580078 0)"/>
     <use xlink:href="#DejaVuSans-Bold-72" transform="translate(3193.394531 0)"/>
     <use xlink:href="#DejaVuSans-Bold-75" transform="translate(3242.710938 0)"/>
     <use xlink:href="#DejaVuSans-Bold-6e" transform="translate(3313.902344 0)"/>
     <use xlink:href="#DejaVuSans-Bold-29" transform="translate(3385.09375 0)"/>
    </g>
   </g>
   <g id="line2d_25">
    <path d="M 77.131733 106.125394 
L 226.25446 151.082785 
L 375.377187 187.939745 
L 524.499915 132.345209 
L 673.622642 175.469345 
" clip-path="url(#pa652913465)" style="fill: none; stroke: #2196f3; stroke-width: 2.5; stroke-linecap: square"/>
    <defs>
     <path id="m08591da425" d="M 0 4 
C 1.060812 4 2.078319 3.578535 2.828427 2.828427 
C 3.578535 2.078319 4 1.060812 4 0 
C 4 -1.060812 3.578535 -2.078319 2.828427 -2.828427 
C 2.078319 -3.578535 1.060812 -4 0 -4 
C -1.060812 -4 -2.078319 -3.578535 -2.828427 -2.828427 
C -3.578535 -2.078319 -4 -1.060812 -4 0 
C -4 1.060812 -3.578535 2.078319 -2.828427 2.828427 
C -2.078319 3.578535 -1.060812 4 0 4 
z
" style="stroke: #2196f3"/>
    </defs>
    <g clip-path="url(#pa652913465)">
     <use xlink:href="#m08591da425" x="77.131733" y="106.125394" style="fill: #2196f3; stroke: #2196f3"/>
     <use xlink:href="#m08591da425" x="226.25446" y="151.082785" style="fill: #2196f3; stroke: #2196f3"/>
     <use xlink:href="#m08591da425" x="375.377187" y="187.939745" style="fill: #2196f3; stroke: #2196f3"/>
     <use xlink:href="#m08591da425" x="524.499915" y="132.345209" style="fill: #2196f3; stroke: #2196f3"/>
     <use xlink:href="#m08591da425" x="673.622642" y="175.469345" style="fill: #2196f3; stroke: #2196f3"/>
    </g>
   </g>
   <g id="line2d_26">
    <path d="M 77.131733 77.795203 
L 226.25446 136.096988 
L 375.377187 169.394022 
L 524.499915 123.882391 
L 673.622642 165.045369 
" clip-path="url(#pa652913465)" style="fill: none; stroke: #4caf50; stroke-width: 2.5; stroke-linecap: square"/>
    <defs>
     <path id="m038323663d" d="M -4 4 
L 4 4 
L 4 -4 
L -4 -4 
z
" style="stroke: #4caf50; stroke-linejoin: miter"/>
    </defs>
    <g clip-path="url(#pa652913465)">
     <use xlink:href="#m038323663d" x="77.131733" y="77.795203" style="fill: #4caf50; stroke: #4caf50; stroke-linejoin: miter"/>
     <use xlink:href="#m038323663d" x="226.25446" y="136.096988" style="fill: #4caf50; stroke: #4caf50; stroke-linejoin: miter"/>
     <use xlink:href="#m038323663d" x="375.377187" y="169.394022" style="fill: #4caf50; stroke: #4caf50; stroke-linejoin: miter"/>
     <use xlink:href="#m038323663d" x="524.499915" y="123.882391" style="fill: #4caf50; stroke: #4caf50; stroke-linejoin: miter"/>
     <use xlink:href="#m038323663d" x="673.622642" y="165.045369" style="fill: #4caf50; stroke: #4caf50; stroke-linejoin: miter"/>
    </g>
   </g>
   <g id="line2d_27">
    <path d="M 77.131733 135.265628 
L 226.25446 184.379819 
L 375.377187 213.541369 
L 524.499915 165.791462 
L 673.622642 231.319683 
" clip-path="url(#pa652913465)" style="fill: none; stroke: #ff9800; stroke-width: 2.5; stroke-linecap: square"/>
    <defs>
     <path id="m73e27ddd39" d="M -0 5.656854 
L 5.656854 0 
L 0 -5.656854 
L -5.656854 -0 
z
" style="stroke: #ff9800; stroke-linejoin: miter"/>
    </defs>
    <g clip-path="url(#pa652913465)">
     <use xlink:href="#m73e27ddd39" x="77.131733" y="135.265628" style="fill: #ff9800; stroke: #ff9800; stroke-linejoin: miter"/>
     <use xlink:href="#m73e27ddd39" x="226.25446" y="184.379819" style="fill: #ff9800; stroke: #ff9800; stroke-linejoin: miter"/>
     <use xlink:href="#m73e27ddd39" x="375.377187" y="213.541369" style="fill: #ff9800; stroke: #ff9800; stroke-linejoin: miter"/>
     <use xlink:href="#m73e27ddd39" x="524.499915" y="165.791462" style="fill: #ff9800; stroke: #ff9800; stroke-linejoin: miter"/>
     <use xlink:href="#m73e27ddd39" x="673.622642" y="231.319683" style="fill: #ff9800; stroke: #ff9800; stroke-linejoin: miter"/>
    </g>
   </g>
   <g id="legend_1">
    <g id="patch_7">
     <path d="M 587.190938 90.075625 
L 695.747187 90.075625 
Q 697.947187 90.075625 697.947187 87.875625 
L 697.947187 40.537813 
Q 697.947187 38.337813 695.747187 38.337813 
L 587.190938 38.337813 
Q 584.990937 38.337813 584.990937 40.537813 
L 584.990937 87.875625 
Q 584.990937 90.075625 587.190938 90.075625 
z
" style="fill: #f8f9fa; opacity: 0.9; stroke: #cccccc; stroke-linejoin: miter"/>
    </g>
    <g id="line2d_28">
     <path d="M 589.390937 47.246094 
L 600.390937 47.246094 
L 611.390937 47.246094 
" style="fill: none; stroke: #2196f3; stroke-width: 2.5; stroke-linecap: square"/>
     <g>
      <use xlink:href="#m08591da425" x="600.390937" y="47.246094" style="fill: #2196f3; stroke: #2196f3"/>
     </g>
    </g>
    <g id="text_16">
     <!-- LoRA -->
     <g style="fill: #212529" transform="translate(620.190937 51.096094) scale(0.11 -0.11)">
      <defs>
       <path id="DejaVuSans-4c" d="M 628 4666 
L 1259 4666 
L 1259 531 
L 3531 531 
L 3531 0 
L 628 0 
L 628 4666 
z
" transform="scale(0.015625)"/>
       <path id="DejaVuSans-6f" d="M 1959 3097 
Q 1497 3097 1228 2736 
Q 959 2375 959 1747 
Q 959 1119 1226 758 
Q 1494 397 1959 397 
Q 2419 397 2687 759 
Q 2956 1122 2956 1747 
Q 2956 2369 2687 2733 
Q 2419 3097 1959 3097 
z
M 1959 3584 
Q 2709 3584 3137 3096 
Q 3566 2609 3566 1747 
Q 3566 888 3137 398 
Q 2709 -91 1959 -91 
Q 1206 -91 779 398 
Q 353 888 353 1747 
Q 353 2609 779 3096 
Q 1206 3584 1959 3584 
z
" transform="scale(0.015625)"/>
       <path id="DejaVuSans-52" d="M 2841 2188 
Q 3044 2119 3236 1894 
Q 3428 1669 3622 1275 
L 4263 0 
L 3584 0 
L 2988 1197 
Q 2756 1666 2539 1819 
Q 2322 1972 1947 1972 
L 1259 1972 
L 1259 0 
L 628 0 
L 628 4666 
L 2053 4666 
Q 2853 4666 3247 4331 
Q 3641 3997 3641 3322 
Q 3641 2881 3436 2590 
Q 3231 2300 2841 2188 
z
M 1259 4147 
L 1259 2491 
L 2053 2491 
Q 2509 2491 2742 2702 
Q 2975 2913 2975 3322 
Q 2975 3731 2742 3939 
Q 2509 4147 2053 4147 
L 1259 4147 
z
" transform="scale(0.015625)"/>
       <path id="DejaVuSans-41" d="M 2188 4044 
L 1331 1722 
L 3047 1722 
L 2188 4044 
z
M 1831 4666 
L 2547 4666 
L 4325 0 
L 3669 0 
L 3244 1197 
L 1141 1197 
L 716 0 
L 50 0 
L 1831 4666 
z
" transform="scale(0.015625)"/>
      </defs>
      <use xlink:href="#DejaVuSans-4c"/>
      <use xlink:href="#DejaVuSans-6f" transform="translate(53.962891 0)"/>
      <use xlink:href="#DejaVuSans-52" transform="translate(115.144531 0)"/>
      <use xlink:href="#DejaVuSans-41" transform="translate(180.626953 0)"/>
     </g>
    </g>
    <g id="line2d_29">
     <path d="M 589.390937 63.392031 
L 600.390937 63.392031 
L 611.390937 63.392031 
" style="fill: none; stroke: #4caf50; stroke-width: 2.5; stroke-linecap: square"/>
     <g>
      <use xlink:href="#m038323663d" x="600.390937" y="63.392031" style="fill: #4caf50; stroke: #4caf50; stroke-linejoin: miter"/>
     </g>
    </g>
    <g id="text_17">
     <!-- QLoRA -->
     <g style="fill: #212529" transform="translate(620.190937 67.242031) scale(0.11 -0.11)">
      <defs>
       <path id="DejaVuSans-51" d="M 2522 4238 
Q 1834 4238 1429 3725 
Q 1025 3213 1025 2328 
Q 1025 1447 1429 934 
Q 1834 422 2522 422 
Q 3209 422 3611 934 
Q 4013 1447 4013 2328 
Q 4013 3213 3611 3725 
Q 3209 4238 2522 4238 
z
M 3406 84 
L 4238 -825 
L 3475 -825 
L 2784 -78 
Q 2681 -84 2626 -87 
Q 2572 -91 2522 -91 
Q 1538 -91 948 567 
Q 359 1225 359 2328 
Q 359 3434 948 4092 
Q 1538 4750 2522 4750 
Q 3503 4750 4090 4092 
Q 4678 3434 4678 2328 
Q 4678 1516 4351 937 
Q 4025 359 3406 84 
z
" transform="scale(0.015625)"/>
      </defs>
      <use xlink:href="#DejaVuSans-51"/>
      <use xlink:href="#DejaVuSans-4c" transform="translate(78.710938 0)"/>
      <use xlink:href="#DejaVuSans-6f" transform="translate(132.673828 0)"/>
      <use xlink:href="#DejaVuSans-52" transform="translate(193.855469 0)"/>
      <use xlink:href="#DejaVuSans-41" transform="translate(259.337891 0)"/>
     </g>
    </g>
    <g id="line2d_30">
     <path d="M 589.390937 79.537969 
L 600.390937 79.537969 
L 611.390937 79.537969 
" style="fill: none; stroke: #ff9800; stroke-width: 2.5; stroke-linecap: square"/>
     <g>
      <use xlink:href="#m73e27ddd39" x="600.390937" y="79.537969" style="fill: #ff9800; stroke: #ff9800; stroke-linejoin: miter"/>
     </g>
    </g>
    <g id="text_18">
     <!-- Full Fine-Tune -->
     <g style="fill: #212529" transform="translate(620.190937 83.387969) scale(0.11 -0.11)">
      <defs>
       <path id="DejaVuSans-46" d="M 628 4666 
L 3309 4666 
L 3309 4134 
L 1259 4134 
L 1259 2759 
L 3109 2759 
L 3109 2228 
L 1259 2228 
L 1259 0 
L 628 0 
L 628 4666 
z
" transform="scale(0.015625)"/>
       <path id="DejaVuSans-75" d="M 544 1381 
L 544 3500 
L 1119 3500 
L 1119 1403 
Q 1119 906 1312 657 
Q 1506 409 1894 409 
Q 2359 409 2629 706 
Q 2900 1003 2900 1516 
L 2900 3500 
L 3475 3500 
L 3475 0 
L 2900 0 
L 2900 538 
Q 2691 219 2414 64 
Q 2138 -91 1772 -91 
Q 1169 -91 856 284 
Q 544 659 544 1381 
z
M 1991 3584 
L 1991 3584 
z
" transform="scale(0.015625)"/>
       <path id="DejaVuSans-6c" d="M 603 4863 
L 1178 4863 
L 1178 0 
L 603 0 
L 603 4863 
z
" transform="scale(0.015625)"/>
       <path id="DejaVuSans-20" transform="scale(0.015625)"/>
       <path id="DejaVuSans-69" d="M 603 3500 
L 1178 3500 
L 1178 0 
L 603 0 
L 603 3500 
z
M 603 4863 
L 1178 4863 
L 1178 4134 
L 603 4134 
L 603 4863 
z
" transform="scale(0.015625)"/>
       <path id="DejaVuSans-6e" d="M 3513 2113 
L 3513 0 
L 2938 0 
L 2938 2094 
Q 2938 2591 2744 2837 
Q 2550 3084 2163 3084 
Q 1697 3084 1428 2787 
Q 1159 2491 1159 1978 
L 1159 0 
L 581 0 
L 581 3500 
L 1159 3500 
L 1159 2956 
Q 1366 3272 1645 3428 
Q 1925 3584 2291 3584 
Q 2894 3584 3203 3211 
Q 3513 2838 3513 2113 
z
" transform="scale(0.015625)"/>
       <path id="DejaVuSans-65" d="M 3597 1894 
L 3597 1613 
L 953 1613 
Q 991 1019 1311 708 
Q 1631 397 2203 397 
Q 2534 397 2845 478 
Q 3156 559 3463 722 
L 3463 178 
Q 3153 47 2828 -22 
Q 2503 -91 2169 -91 
Q 1331 -91 842 396 
Q 353 884 353 1716 
Q 353 2575 817 3079 
Q 1281 3584 2069 3584 
Q 2775 3584 3186 3129 
Q 3597 2675 3597 1894 
z
M 3022 2063 
Q 3016 2534 2758 2815 
Q 2500 3097 2075 3097 
Q 1594 3097 1305 2825 
Q 1016 2553 972 2059 
L 3022 2063 
z
" transform="scale(0.015625)"/>
       <path id="DejaVuSans-2d" d="M 313 2009 
L 1997 2009 
L 1997 1497 
L 313 1497 
L 313 2009 
z
" transform="scale(0.015625)"/>
       <path id="DejaVuSans-54" d="M -19 4666 
L 3928 4666 
L 3928 4134 
L 2272 4134 
L 2272 0 
L 1638 0 
L 1638 4134 
L -19 4134 
L -19 4666 
z
" transform="scale(0.015625)"/>
      </defs>
      <use xlink:href="#DejaVuSans-46"/>
      <use xlink:href="#DejaVuSans-75" transform="translate(52.019531 0)"/>
      <use xlink:href="#DejaVuSans-6c" transform="translate(115.398438 0)"/>
      <use xlink:href="#DejaVuSans-6c" transform="translate(143.181641 0)"/>
      <use xlink:href="#DejaVuSans-20" transform="translate(170.964844 0)"/>
      <use xlink:href="#DejaVuSans-46" transform="translate(202.751953 0)"/>
      <use xlink:href="#DejaVuSans-69" transform="translate(253.021484 0)"/>
      <use xlink:href="#DejaVuSans-6e" transform="translate(280.804688 0)"/>
      <use xlink:href="#DejaVuSans-65" transform="translate(344.183594 0)"/>
      <use xlink:href="#DejaVuSans-2d" transform="translate(405.707031 0)"/>
      <use xlink:href="#DejaVuSans-54" transform="translate(432.666016 0)"/>
      <use xlink:href="#DejaVuSans-75" transform="translate(478.625 0)"/>
      <use xlink:href="#DejaVuSans-6e" transform="translate(542.003906 0)"/>
      <use xlink:href="#DejaVuSans-65" transform="translate(605.382812 0)"/>
     </g>
    </g>
   </g>
  </g>
 </g>
 <defs>
  <clipPath id="pa652913465">
   <rect x="47.307188" y="32.837812" width="656.14" height="277.12"/>
  </clipPath>
 </defs>
</svg>
