<?xml version="1.0" encoding="utf-8" standalone="no"?>
<!DOCTYPE svg PUBLIC "-//W3C//DTD SVG 1.1//EN"
  "http://www.w3.org/Graphics/SVG/1.1/DTD/svg11.dtd">
<svg xmlns:xlink="http://www.w3.org/1999/xlink" width="719.33875pt" height="340.529688pt" viewBox="0 0 719.33875 340.529688" xmlns="http://www.w3.org/2000/svg" version="1.1">
 <metadata>
  <rdf:RDF xmlns:dc="http://purl.org/dc/elements/1.1/" xmlns:cc="http://creativecommons.org/ns#" xmlns:rdf="http://www.w3.org/1999/02/22-rdf-syntax-ns#">
   <cc:Work>
    <dc:type rdf:resource="http://purl.org/dc/dcmitype/StillImage"/>
    <dc:date>2026-04-16T06:02:53.537261</dc:date>
    <dc:format>image/svg+xml</dc:format>
    <dc:creator>
     <cc:Agent>
      <dc:title>Matplotlib v3.10.8, https://matplotlib.org/</dc:title>
     </cc:Agent>
    </dc:creator>
   </cc:Work>
  </rdf:RDF>
 </metadata>
 <defs>
  <style type="text/css">*{stroke-linejoin: round; stroke-linecap: butt}</style>
 </defs>
 <g id="figure_1">
  <g id="patch_1">
   <path d="M 0 340.529688 
L 719.33875 340.529688 
L 719.33875 0 
L 0 0 
z
" style="fill: #0d1117"/>
  </g>
  <g id="axes_1">
   <g id="patch_2">
    <path d="M 42.53875 301.037813 
L 712.13875 301.037813 
L 712.13875 23.837812 
L 42.53875 23.837812 
z
" style="fill: #0d1117"/>
   </g>
   <g id="matplotlib.axis_1">
    <g id="xtick_1">
     <g id="line2d_1">
      <path d="M 71.755219 301.037813 
L 71.755219 23.837812 
" clip-path="url(#p546b1428a9)" style="fill: none; stroke: #21262d; stroke-opacity: 0.6; stroke-width: 0.5; stroke-linecap: square"/>
     </g>
     <g id="line2d_2">
      <defs>
       <path id="md59cb62887" d="M 0 0 
L 0 3.5 
" style="stroke: #c9d1d9; stroke-width: 0.8"/>
      </defs>
      <g>
       <use xlink:href="#md59cb62887" x="71.755219" y="301.037813" style="fill: #c9d1d9; stroke: #c9d1d9; stroke-width: 0.8"/>
      </g>
     </g>
     <g id="text_1">
      <!-- 0 -->
      <g style="fill: #c9d1d9" transform="translate(68.573969 315.63625) scale(0.1 -0.1)">
       <defs>
        <path id="DejaVuSans-30" d="M 2034 4250 
Q 1547 4250 1301 3770 
Q 1056 3291 1056 2328 
Q 1056 1369 1301 889 
Q 1547 409 2034 409 
Q 2525 409 2770 889 
Q 3016 1369 3016 2328 
Q 3016 3291 2770 3770 
Q 2525 4250 2034 4250 
z
M 2034 4750 
Q 2819 4750 3233 4129 
Q 3647 3509 3647 2328 
Q 3647 1150 3233 529 
Q 2819 -91 2034 -91 
Q 1250 -91 836 529 
Q 422 1150 422 2328 
Q 422 3509 836 4129 
Q 1250 4750 2034 4750 
z
" transform="scale(0.015625)"/>
       </defs>
       <use xlink:href="#DejaVuSans-30"/>
      </g>
     </g>
    </g>
    <g id="xtick_2">
     <g id="line2d_3">
      <path d="M 193.744653 301.037813 
L 193.744653 23.837812 
" clip-path="url(#p546b1428a9)" style="fill: none; stroke: #21262d; stroke-opacity: 0.6; stroke-width: 0.5; stroke-linecap: square"/>
     </g>
     <g id="line2d_4">
      <g>
       <use xlink:href="#md59cb62887" x="193.744653" y="301.037813" style="fill: #c9d1d9; stroke: #c9d1d9; stroke-width: 0.8"/>
      </g>
     </g>
     <g id="text_2">
      <!-- 100 -->
      <g style="fill: #c9d1d9" transform="translate(184.200903 315.63625) scale(0.1 -0.1)">
       <defs>
        <path id="DejaVuSans-31" d="M 794 531 
L 1825 531 
L 1825 4091 
L 703 3866 
L 703 4441 
L 1819 4666 
L 2450 4666 
L 2450 531 
L 3481 531 
L 3481 0 
L 794 0 
L 794 531 
z
" transform="scale(0.015625)"/>
       </defs>
       <use xlink:href="#DejaVuSans-31"/>
       <use xlink:href="#DejaVuSans-30" transform="translate(63.623047 0)"/>
       <use xlink:href="#DejaVuSans-30" transform="translate(127.246094 0)"/>
      </g>
     </g>
    </g>
    <g id="xtick_3">
     <g id="line2d_5">
      <path d="M 315.734086 301.037813 
L 315.734086 23.837812 
" clip-path="url(#p546b1428a9)" style="fill: none; stroke: #21262d; stroke-opacity: 0.6; stroke-width: 0.5; stroke-linecap: square"/>
     </g>
     <g id="line2d_6">
      <g>
       <use xlink:href="#md59cb62887" x="315.734086" y="301.037813" style="fill: #c9d1d9; stroke: #c9d1d9; stroke-width: 0.8"/>
      </g>
     </g>
     <g id="text_3">
      <!-- 200 -->
      <g style="fill: #c9d1d9" transform="translate(306.190336 315.63625) scale(0.1 -0.1)">
       <defs>
        <path id="DejaVuSans-32" d="M 1228 531 
L 3431 531 
L 3431 0 
L 469 0 
L 469 531 
Q 828 903 1448 1529 
Q 2069 2156 2228 2338 
Q 2531 2678 2651 2914 
Q 2772 3150 2772 3378 
Q 2772 3750 2511 3984 
Q 2250 4219 1831 4219 
Q 1534 4219 1204 4116 
Q 875 4013 500 3803 
L 500 4441 
Q 881 4594 1212 4672 
Q 1544 4750 1819 4750 
Q 2544 4750 2975 4387 
Q 3406 4025 3406 3419 
Q 3406 3131 3298 2873 
Q 3191 2616 2906 2266 
Q 2828 2175 2409 1742 
Q 1991 1309 1228 531 
z
" transform="scale(0.015625)"/>
       </defs>
       <use xlink:href="#DejaVuSans-32"/>
       <use xlink:href="#DejaVuSans-30" transform="translate(63.623047 0)"/>
       <use xlink:href="#DejaVuSans-30" transform="translate(127.246094 0)"/>
      </g>
     </g>
    </g>
    <g id="xtick_4">
     <g id="line2d_7">
      <path d="M 437.72352 301.037813 
L 437.72352 23.837812 
" clip-path="url(#p546b1428a9)" style="fill: none; stroke: #21262d; stroke-opacity: 0.6; stroke-width: 0.5; stroke-linecap: square"/>
     </g>
     <g id="line2d_8">
      <g>
       <use xlink:href="#md59cb62887" x="437.72352" y="301.037813" style="fill: #c9d1d9; stroke: #c9d1d9; stroke-width: 0.8"/>
      </g>
     </g>
     <g id="text_4">
      <!-- 300 -->
      <g style="fill: #c9d1d9" transform="translate(428.17977 315.63625) scale(0.1 -0.1)">
       <defs>
        <path id="DejaVuSans-33" d="M 2597 2516 
Q 3050 2419 3304 2112 
Q 3559 1806 3559 1356 
Q 3559 666 3084 287 
Q 2609 -91 1734 -91 
Q 1441 -91 1130 -33 
Q 819 25 488 141 
L 488 750 
Q 750 597 1062 519 
Q 1375 441 1716 441 
Q 2309 441 2620 675 
Q 2931 909 2931 1356 
Q 2931 1769 2642 2001 
Q 2353 2234 1838 2234 
L 1294 2234 
L 1294 2753 
L 1863 2753 
Q 2328 2753 2575 2939 
Q 2822 3125 2822 3475 
Q 2822 3834 2567 4026 
Q 2313 4219 1838 4219 
Q 1578 4219 1281 4162 
Q 984 4106 628 3988 
L 628 4550 
Q 988 4650 1302 4700 
Q 1616 4750 1894 4750 
Q 2613 4750 3031 4423 
Q 3450 4097 3450 3541 
Q 3450 3153 3228 2886 
Q 3006 2619 2597 2516 
z
" transform="scale(0.015625)"/>
       </defs>
       <use xlink:href="#DejaVuSans-33"/>
       <use xlink:href="#DejaVuSans-30" transform="translate(63.623047 0)"/>
       <use xlink:href="#DejaVuSans-30" transform="translate(127.246094 0)"/>
      </g>
     </g>
    </g>
    <g id="xtick_5">
     <g id="line2d_9">
      <path d="M 559.712953 301.037813 
L 559.712953 23.837812 
" clip-path="url(#p546b1428a9)" style="fill: none; stroke: #21262d; stroke-opacity: 0.6; stroke-width: 0.5; stroke-linecap: square"/>
     </g>
     <g id="line2d_10">
      <g>
       <use xlink:href="#md59cb62887" x="559.712953" y="301.037813" style="fill: #c9d1d9; stroke: #c9d1d9; stroke-width: 0.8"/>
      </g>
     </g>
     <g id="text_5">
      <!-- 400 -->
      <g style="fill: #c9d1d9" transform="translate(550.169203 315.63625) scale(0.1 -0.1)">
       <defs>
        <path id="DejaVuSans-34" d="M 2419 4116 
L 825 1625 
L 2419 1625 
L 2419 4116 
z
M 2253 4666 
L 3047 4666 
L 3047 1625 
L 3713 1625 
L 3713 1100 
L 3047 1100 
L 3047 0 
L 2419 0 
L 2419 1100 
L 313 1100 
L 313 1709 
L 2253 4666 
z
" transform="scale(0.015625)"/>
       </defs>
       <use xlink:href="#DejaVuSans-34"/>
       <use xlink:href="#DejaVuSans-30" transform="translate(63.623047 0)"/>
       <use xlink:href="#DejaVuSans-30" transform="translate(127.246094 0)"/>
      </g>
     </g>
    </g>
    <g id="xtick_6">
     <g id="line2d_11">
      <path d="M 681.702386 301.037813 
L 681.702386 23.837812 
" clip-path="url(#p546b1428a9)" style="fill: none; stroke: #21262d; stroke-opacity: 0.6; stroke-width: 0.5; stroke-linecap: square"/>
     </g>
     <g id="line2d_12">
      <g>
       <use xlink:href="#md59cb62887" x="681.702386" y="301.037813" style="fill: #c9d1d9; stroke: #c9d1d9; stroke-width: 0.8"/>
      </g>
     </g>
     <g id="text_6">
      <!-- 500 -->
      <g style="fill: #c9d1d9" transform="translate(672.158636 315.63625) scale(0.1 -0.1)">
       <defs>
        <path id="DejaVuSans-35" d="M 691 4666 
L 3169 4666 
L 3169 4134 
L 1269 4134 
L 1269 2991 
Q 1406 3038 1543 3061 
Q 1681 3084 1819 3084 
Q 2600 3084 3056 2656 
Q 3513 2228 3513 1497 
Q 3513 744 3044 326 
Q 2575 -91 1722 -91 
Q 1428 -91 1123 -41 
Q 819 9 494 109 
L 494 744 
Q 775 591 1075 516 
Q 1375 441 1709 441 
Q 2250 441 2565 725 
Q 2881 1009 2881 1497 
Q 2881 1984 2565 2268 
Q 2250 2553 1709 2553 
Q 1456 2553 1204 2497 
Q 953 2441 691 2322 
L 691 4666 
z
" transform="scale(0.015625)"/>
       </defs>
       <use xlink:href="#DejaVuSans-35"/>
       <use xlink:href="#DejaVuSans-30" transform="translate(63.623047 0)"/>
       <use xlink:href="#DejaVuSans-30" transform="translate(127.246094 0)"/>
      </g>
     </g>
    </g>
    <g id="text_7">
     <!-- Training Step -->
     <g style="fill: #c9d1d9" transform="translate(338.09875 330.834063) scale(0.12 -0.12)">
      <defs>
       <path id="DejaVuSans-54" d="M -19 4666 
L 3928 4666 
L 3928 4134 
L 2272 4134 
L 2272 0 
L 1638 0 
L 1638 4134 
L -19 4134 
L -19 4666 
z
" transform="scale(0.015625)"/>
       <path id="DejaVuSans-72" d="M 2631 2963 
Q 2534 3019 2420 3045 
Q 2306 3072 2169 3072 
Q 1681 3072 1420 2755 
Q 1159 2438 1159 1844 
L 1159 0 
L 581 0 
L 581 3500 
L 1159 3500 
L 1159 2956 
Q 1341 3275 1631 3429 
Q 1922 3584 2338 3584 
Q 2397 3584 2469 3576 
Q 2541 3569 2628 3553 
L 2631 2963 
z
" transform="scale(0.015625)"/>
       <path id="DejaVuSans-61" d="M 2194 1759 
Q 1497 1759 1228 1600 
Q 959 1441 959 1056 
Q 959 750 1161 570 
Q 1363 391 1709 391 
Q 2188 391 2477 730 
Q 2766 1069 2766 1631 
L 2766 1759 
L 2194 1759 
z
M 3341 1997 
L 3341 0 
L 2766 0 
L 2766 531 
Q 2569 213 2275 61 
Q 1981 -91 1556 -91 
Q 1019 -91 701 211 
Q 384 513 384 1019 
Q 384 1609 779 1909 
Q 1175 2209 1959 2209 
L 2766 2209 
L 2766 2266 
Q 2766 2663 2505 2880 
Q 2244 3097 1772 3097 
Q 1472 3097 1187 3025 
Q 903 2953 641 2809 
L 641 3341 
Q 956 3463 1253 3523 
Q 1550 3584 1831 3584 
Q 2591 3584 2966 3190 
Q 3341 2797 3341 1997 
z
" transform="scale(0.015625)"/>
       <path id="DejaVuSans-69" d="M 603 3500 
L 1178 3500 
L 1178 0 
L 603 0 
L 603 3500 
z
M 603 4863 
L 1178 4863 
L 1178 4134 
L 603 4134 
L 603 4863 
z
" transform="scale(0.015625)"/>
       <path id="DejaVuSans-6e" d="M 3513 2113 
L 3513 0 
L 2938 0 
L 2938 2094 
Q 2938 2591 2744 2837 
Q 2550 3084 2163 3084 
Q 1697 3084 1428 2787 
Q 1159 2491 1159 1978 
L 1159 0 
L 581 0 
L 581 3500 
L 1159 3500 
L 1159 2956 
Q 1366 3272 1645 3428 
Q 1925 3584 2291 3584 
Q 2894 3584 3203 3211 
Q 3513 2838 3513 2113 
z
" transform="scale(0.015625)"/>
       <path id="DejaVuSans-67" d="M 2906 1791 
Q 2906 2416 2648 2759 
Q 2391 3103 1925 3103 
Q 1463 3103 1205 2759 
Q 947 2416 947 1791 
Q 947 1169 1205 825 
Q 1463 481 1925 481 
Q 2391 481 2648 825 
Q 2906 1169 2906 1791 
z
M 3481 434 
Q 3481 -459 3084 -895 
Q 2688 -1331 1869 -1331 
Q 1566 -1331 1297 -1286 
Q 1028 -1241 775 -1147 
L 775 -588 
Q 1028 -725 1275 -790 
Q 1522 -856 1778 -856 
Q 2344 -856 2625 -561 
Q 2906 -266 2906 331 
L 2906 616 
Q 2728 306 2450 153 
Q 2172 0 1784 0 
Q 1141 0 747 490 
Q 353 981 353 1791 
Q 353 2603 747 3093 
Q 1141 3584 1784 3584 
Q 2172 3584 2450 3431 
Q 2728 3278 2906 2969 
L 2906 3500 
L 3481 3500 
L 3481 434 
z
" transform="scale(0.015625)"/>
       <path id="DejaVuSans-20" transform="scale(0.015625)"/>
       <path id="DejaVuSans-53" d="M 3425 4513 
L 3425 3897 
Q 3066 4069 2747 4153 
Q 2428 4238 2131 4238 
Q 1616 4238 1336 4038 
Q 1056 3838 1056 3469 
Q 1056 3159 1242 3001 
Q 1428 2844 1947 2747 
L 2328 2669 
Q 3034 2534 3370 2195 
Q 3706 1856 3706 1288 
Q 3706 609 3251 259 
Q 2797 -91 1919 -91 
Q 1588 -91 1214 -16 
Q 841 59 441 206 
L 441 856 
Q 825 641 1194 531 
Q 1563 422 1919 422 
Q 2459 422 2753 634 
Q 3047 847 3047 1241 
Q 3047 1584 2836 1778 
Q 2625 1972 2144 2069 
L 1759 2144 
Q 1053 2284 737 2584 
Q 422 2884 422 3419 
Q 422 4038 858 4394 
Q 1294 4750 2059 4750 
Q 2388 4750 2728 4690 
Q 3069 4631 3425 4513 
z
" transform="scale(0.015625)"/>
       <path id="DejaVuSans-74" d="M 1172 4494 
L 1172 3500 
L 2356 3500 
L 2356 3053 
L 1172 3053 
L 1172 1153 
Q 1172 725 1289 603 
Q 1406 481 1766 481 
L 2356 481 
L 2356 0 
L 1766 0 
Q 1100 0 847 248 
Q 594 497 594 1153 
L 594 3053 
L 172 3053 
L 172 3500 
L 594 3500 
L 594 4494 
L 1172 4494 
z
" transform="scale(0.015625)"/>
       <path id="DejaVuSans-65" d="M 3597 1894 
L 3597 1613 
L 953 1613 
Q 991 1019 1311 708 
Q 1631 397 2203 397 
Q 2534 397 2845 478 
Q 3156 559 3463 722 
L 3463 178 
Q 3153 47 2828 -22 
Q 2503 -91 2169 -91 
Q 1331 -91 842 396 
Q 353 884 353 1716 
Q 353 2575 817 3079 
Q 1281 3584 2069 3584 
Q 2775 3584 3186 3129 
Q 3597 2675 3597 1894 
z
M 3022 2063 
Q 3016 2534 2758 2815 
Q 2500 3097 2075 3097 
Q 1594 3097 1305 2825 
Q 1016 2553 972 2059 
L 3022 2063 
z
" transform="scale(0.015625)"/>
       <path id="DejaVuSans-70" d="M 1159 525 
L 1159 -1331 
L 581 -1331 
L 581 3500 
L 1159 3500 
L 1159 2969 
Q 1341 3281 1617 3432 
Q 1894 3584 2278 3584 
Q 2916 3584 3314 3078 
Q 3713 2572 3713 1747 
Q 3713 922 3314 415 
Q 2916 -91 2278 -91 
Q 1894 -91 1617 61 
Q 1341 213 1159 525 
z
M 3116 1747 
Q 3116 2381 2855 2742 
Q 2594 3103 2138 3103 
Q 1681 3103 1420 2742 
Q 1159 2381 1159 1747 
Q 1159 1113 1420 752 
Q 1681 391 2138 391 
Q 2594 391 2855 752 
Q 3116 1113 3116 1747 
z
" transform="scale(0.015625)"/>
      </defs>
      <use xlink:href="#DejaVuSans-54"/>
      <use xlink:href="#DejaVuSans-72" transform="translate(46.333984 0)"/>
      <use xlink:href="#DejaVuSans-61" transform="translate(87.447266 0)"/>
      <use xlink:href="#DejaVuSans-69" transform="translate(148.726562 0)"/>
      <use xlink:href="#DejaVuSans-6e" transform="translate(176.509766 0)"/>
      <use xlink:href="#DejaVuSans-69" transform="translate(239.888672 0)"/>
      <use xlink:href="#DejaVuSans-6e" transform="translate(267.671875 0)"/>
      <use xlink:href="#DejaVuSans-67" transform="translate(331.050781 0)"/>
      <use xlink:href="#DejaVuSans-20" transform="translate(394.527344 0)"/>
      <use xlink:href="#DejaVuSans-53" transform="translate(426.314453 0)"/>
      <use xlink:href="#DejaVuSans-74" transform="translate(489.791016 0)"/>
      <use xlink:href="#DejaVuSans-65" transform="translate(529 0)"/>
      <use xlink:href="#DejaVuSans-70" transform="translate(590.523438 0)"/>
     </g>
    </g>
   </g>
   <g id="matplotlib.axis_2">
    <g id="ytick_1">
     <g id="line2d_13">
      <path d="M 42.53875 278.509402 
L 712.13875 278.509402 
" clip-path="url(#p546b1428a9)" style="fill: none; stroke: #21262d; stroke-opacity: 0.6; stroke-width: 0.5; stroke-linecap: square"/>
     </g>
     <g id="line2d_14">
      <defs>
       <path id="m2738ff67cd" d="M 0 0 
L -3.5 0 
" style="stroke: #c9d1d9; stroke-width: 0.8"/>
      </defs>
      <g>
       <use xlink:href="#m2738ff67cd" x="42.53875" y="278.509402" style="fill: #c9d1d9; stroke: #c9d1d9; stroke-width: 0.8"/>
      </g>
     </g>
     <g id="text_8">
      <!-- 35 -->
      <g style="fill: #c9d1d9" transform="translate(22.81375 282.30862) scale(0.1 -0.1)">
       <use xlink:href="#DejaVuSans-33"/>
       <use xlink:href="#DejaVuSans-35" transform="translate(63.623047 0)"/>
      </g>
     </g>
    </g>
    <g id="ytick_2">
     <g id="line2d_15">
      <path d="M 42.53875 242.327146 
L 712.13875 242.327146 
" clip-path="url(#p546b1428a9)" style="fill: none; stroke: #21262d; stroke-opacity: 0.6; stroke-width: 0.5; stroke-linecap: square"/>
     </g>
     <g id="line2d_16">
      <g>
       <use xlink:href="#m2738ff67cd" x="42.53875" y="242.327146" style="fill: #c9d1d9; stroke: #c9d1d9; stroke-width: 0.8"/>
      </g>
     </g>
     <g id="text_9">
      <!-- 40 -->
      <g style="fill: #c9d1d9" transform="translate(22.81375 246.126365) scale(0.1 -0.1)">
       <use xlink:href="#DejaVuSans-34"/>
       <use xlink:href="#DejaVuSans-30" transform="translate(63.623047 0)"/>
      </g>
     </g>
    </g>
    <g id="ytick_3">
     <g id="line2d_17">
      <path d="M 42.53875 206.144891 
L 712.13875 206.144891 
" clip-path="url(#p546b1428a9)" style="fill: none; stroke: #21262d; stroke-opacity: 0.6; stroke-width: 0.5; stroke-linecap: square"/>
     </g>
     <g id="line2d_18">
      <g>
       <use xlink:href="#m2738ff67cd" x="42.53875" y="206.144891" style="fill: #c9d1d9; stroke: #c9d1d9; stroke-width: 0.8"/>
      </g>
     </g>
     <g id="text_10">
      <!-- 45 -->
      <g style="fill: #c9d1d9" transform="translate(22.81375 209.94411) scale(0.1 -0.1)">
       <use xlink:href="#DejaVuSans-34"/>
       <use xlink:href="#DejaVuSans-35" transform="translate(63.623047 0)"/>
      </g>
     </g>
    </g>
    <g id="ytick_4">
     <g id="line2d_19">
      <path d="M 42.53875 169.962636 
L 712.13875 169.962636 
" clip-path="url(#p546b1428a9)" style="fill: none; stroke: #21262d; stroke-opacity: 0.6; stroke-width: 0.5; stroke-linecap: square"/>
     </g>
     <g id="line2d_20">
      <g>
       <use xlink:href="#m2738ff67cd" x="42.53875" y="169.962636" style="fill: #c9d1d9; stroke: #c9d1d9; stroke-width: 0.8"/>
      </g>
     </g>
     <g id="text_11">
      <!-- 50 -->
      <g style="fill: #c9d1d9" transform="translate(22.81375 173.761855) scale(0.1 -0.1)">
       <use xlink:href="#DejaVuSans-35"/>
       <use xlink:href="#DejaVuSans-30" transform="translate(63.623047 0)"/>
      </g>
     </g>
    </g>
    <g id="ytick_5">
     <g id="line2d_21">
      <path d="M 42.53875 133.780381 
L 712.13875 133.780381 
" clip-path="url(#p546b1428a9)" style="fill: none; stroke: #21262d; stroke-opacity: 0.6; stroke-width: 0.5; stroke-linecap: square"/>
     </g>
     <g id="line2d_22">
      <g>
       <use xlink:href="#m2738ff67cd" x="42.53875" y="133.780381" style="fill: #c9d1d9; stroke: #c9d1d9; stroke-width: 0.8"/>
      </g>
     </g>
     <g id="text_12">
      <!-- 55 -->
      <g style="fill: #c9d1d9" transform="translate(22.81375 137.5796) scale(0.1 -0.1)">
       <use xlink:href="#DejaVuSans-35"/>
       <use xlink:href="#DejaVuSans-35" transform="translate(63.623047 0)"/>
      </g>
     </g>
    </g>
    <g id="ytick_6">
     <g id="line2d_23">
      <path d="M 42.53875 97.598126 
L 712.13875 97.598126 
" clip-path="url(#p546b1428a9)" style="fill: none; stroke: #21262d; stroke-opacity: 0.6; stroke-width: 0.5; stroke-linecap: square"/>
     </g>
     <g id="line2d_24">
      <g>
       <use xlink:href="#m2738ff67cd" x="42.53875" y="97.598126" style="fill: #c9d1d9; stroke: #c9d1d9; stroke-width: 0.8"/>
      </g>
     </g>
     <g id="text_13">
      <!-- 60 -->
      <g style="fill: #c9d1d9" transform="translate(22.81375 101.397344) scale(0.1 -0.1)">
       <defs>
        <path id="DejaVuSans-36" d="M 2113 2584 
Q 1688 2584 1439 2293 
Q 1191 2003 1191 1497 
Q 1191 994 1439 701 
Q 1688 409 2113 409 
Q 2538 409 2786 701 
Q 3034 994 3034 1497 
Q 3034 2003 2786 2293 
Q 2538 2584 2113 2584 
z
M 3366 4563 
L 3366 3988 
Q 3128 4100 2886 4159 
Q 2644 4219 2406 4219 
Q 1781 4219 1451 3797 
Q 1122 3375 1075 2522 
Q 1259 2794 1537 2939 
Q 1816 3084 2150 3084 
Q 2853 3084 3261 2657 
Q 3669 2231 3669 1497 
Q 3669 778 3244 343 
Q 2819 -91 2113 -91 
Q 1303 -91 875 529 
Q 447 1150 447 2328 
Q 447 3434 972 4092 
Q 1497 4750 2381 4750 
Q 2619 4750 2861 4703 
Q 3103 4656 3366 4563 
z
" transform="scale(0.015625)"/>
       </defs>
       <use xlink:href="#DejaVuSans-36"/>
       <use xlink:href="#DejaVuSans-30" transform="translate(63.623047 0)"/>
      </g>
     </g>
    </g>
    <g id="ytick_7">
     <g id="line2d_25">
      <path d="M 42.53875 61.415871 
L 712.13875 61.415871 
" clip-path="url(#p546b1428a9)" style="fill: none; stroke: #21262d; stroke-opacity: 0.6; stroke-width: 0.5; stroke-linecap: square"/>
     </g>
     <g id="line2d_26">
      <g>
       <use xlink:href="#m2738ff67cd" x="42.53875" y="61.415871" style="fill: #c9d1d9; stroke: #c9d1d9; stroke-width: 0.8"/>
      </g>
     </g>
     <g id="text_14">
      <!-- 65 -->
      <g style="fill: #c9d1d9" transform="translate(22.81375 65.215089) scale(0.1 -0.1)">
       <use xlink:href="#DejaVuSans-36"/>
       <use xlink:href="#DejaVuSans-35" transform="translate(63.623047 0)"/>
      </g>
     </g>
    </g>
    <g id="ytick_8">
     <g id="line2d_27">
      <path d="M 42.53875 25.233615 
L 712.13875 25.233615 
" clip-path="url(#p546b1428a9)" style="fill: none; stroke: #21262d; stroke-opacity: 0.6; stroke-width: 0.5; stroke-linecap: square"/>
     </g>
     <g id="line2d_28">
      <g>
       <use xlink:href="#m2738ff67cd" x="42.53875" y="25.233615" style="fill: #c9d1d9; stroke: #c9d1d9; stroke-width: 0.8"/>
      </g>
     </g>
     <g id="text_15">
      <!-- 70 -->
      <g style="fill: #c9d1d9" transform="translate(22.81375 29.032834) scale(0.1 -0.1)">
       <defs>
        <path id="DejaVuSans-37" d="M 525 4666 
L 3525 4666 
L 3525 4397 
L 1831 0 
L 1172 0 
L 2766 4134 
L 525 4134 
L 525 4666 
z
" transform="scale(0.015625)"/>
       </defs>
       <use xlink:href="#DejaVuSans-37"/>
       <use xlink:href="#DejaVuSans-30" transform="translate(63.623047 0)"/>
      </g>
     </g>
    </g>
    <g id="text_16">
     <!-- Step Time (seconds) -->
     <g style="fill: #c9d1d9" transform="translate(16.318125 223.800938) rotate(-90) scale(0.12 -0.12)">
      <defs>
       <path id="DejaVuSans-6d" d="M 3328 2828 
Q 3544 3216 3844 3400 
Q 4144 3584 4550 3584 
Q 5097 3584 5394 3201 
Q 5691 2819 5691 2113 
L 5691 0 
L 5113 0 
L 5113 2094 
Q 5113 2597 4934 2840 
Q 4756 3084 4391 3084 
Q 3944 3084 3684 2787 
Q 3425 2491 3425 1978 
L 3425 0 
L 2847 0 
L 2847 2094 
Q 2847 2600 2669 2842 
Q 2491 3084 2119 3084 
Q 1678 3084 1418 2786 
Q 1159 2488 1159 1978 
L 1159 0 
L 581 0 
L 581 3500 
L 1159 3500 
L 1159 2956 
Q 1356 3278 1631 3431 
Q 1906 3584 2284 3584 
Q 2666 3584 2933 3390 
Q 3200 3197 3328 2828 
z
" transform="scale(0.015625)"/>
       <path id="DejaVuSans-28" d="M 1984 4856 
Q 1566 4138 1362 3434 
Q 1159 2731 1159 2009 
Q 1159 1288 1364 580 
Q 1569 -128 1984 -844 
L 1484 -844 
Q 1016 -109 783 600 
Q 550 1309 550 2009 
Q 550 2706 781 3412 
Q 1013 4119 1484 4856 
L 1984 4856 
z
" transform="scale(0.015625)"/>
       <path id="DejaVuSans-73" d="M 2834 3397 
L 2834 2853 
Q 2591 2978 2328 3040 
Q 2066 3103 1784 3103 
Q 1356 3103 1142 2972 
Q 928 2841 928 2578 
Q 928 2378 1081 2264 
Q 1234 2150 1697 2047 
L 1894 2003 
Q 2506 1872 2764 1633 
Q 3022 1394 3022 966 
Q 3022 478 2636 193 
Q 2250 -91 1575 -91 
Q 1294 -91 989 -36 
Q 684 19 347 128 
L 347 722 
Q 666 556 975 473 
Q 1284 391 1588 391 
Q 1994 391 2212 530 
Q 2431 669 2431 922 
Q 2431 1156 2273 1281 
Q 2116 1406 1581 1522 
L 1381 1569 
Q 847 1681 609 1914 
Q 372 2147 372 2553 
Q 372 3047 722 3315 
Q 1072 3584 1716 3584 
Q 2034 3584 2315 3537 
Q 2597 3491 2834 3397 
z
" transform="scale(0.015625)"/>
       <path id="DejaVuSans-63" d="M 3122 3366 
L 3122 2828 
Q 2878 2963 2633 3030 
Q 2388 3097 2138 3097 
Q 1578 3097 1268 2742 
Q 959 2388 959 1747 
Q 959 1106 1268 751 
Q 1578 397 2138 397 
Q 2388 397 2633 464 
Q 2878 531 3122 666 
L 3122 134 
Q 2881 22 2623 -34 
Q 2366 -91 2075 -91 
Q 1284 -91 818 406 
Q 353 903 353 1747 
Q 353 2603 823 3093 
Q 1294 3584 2113 3584 
Q 2378 3584 2631 3529 
Q 2884 3475 3122 3366 
z
" transform="scale(0.015625)"/>
       <path id="DejaVuSans-6f" d="M 1959 3097 
Q 1497 3097 1228 2736 
Q 959 2375 959 1747 
Q 959 1119 1226 758 
Q 1494 397 1959 397 
Q 2419 397 2687 759 
Q 2956 1122 2956 1747 
Q 2956 2369 2687 2733 
Q 2419 3097 1959 3097 
z
M 1959 3584 
Q 2709 3584 3137 3096 
Q 3566 2609 3566 1747 
Q 3566 888 3137 398 
Q 2709 -91 1959 -91 
Q 1206 -91 779 398 
Q 353 888 353 1747 
Q 353 2609 779 3096 
Q 1206 3584 1959 3584 
z
" transform="scale(0.015625)"/>
       <path id="DejaVuSans-64" d="M 2906 2969 
L 2906 4863 
L 3481 4863 
L 3481 0 
L 2906 0 
L 2906 525 
Q 2725 213 2448 61 
Q 2172 -91 1784 -91 
Q 1150 -91 751 415 
Q 353 922 353 1747 
Q 353 2572 751 3078 
Q 1150 3584 1784 3584 
Q 2172 3584 2448 3432 
Q 2725 3281 2906 2969 
z
M 947 1747 
Q 947 1113 1208 752 
Q 1469 391 1925 391 
Q 2381 391 2643 752 
Q 2906 1113 2906 1747 
Q 2906 2381 2643 2742 
Q 2381 3103 1925 3103 
Q 1469 3103 1208 2742 
Q 947 2381 947 1747 
z
" transform="scale(0.015625)"/>
       <path id="DejaVuSans-29" d="M 513 4856 
L 1013 4856 
Q 1481 4119 1714 3412 
Q 1947 2706 1947 2009 
Q 1947 1309 1714 600 
Q 1481 -109 1013 -844 
L 513 -844 
Q 928 -128 1133 580 
Q 1338 1288 1338 2009 
Q 1338 2731 1133 3434 
Q 928 4138 513 4856 
z
" transform="scale(0.015625)"/>
      </defs>
      <use xlink:href="#DejaVuSans-53"/>
      <use xlink:href="#DejaVuSans-74" transform="translate(63.476562 0)"/>
      <use xlink:href="#DejaVuSans-65" transform="translate(102.685547 0)"/>
      <use xlink:href="#DejaVuSans-70" transform="translate(164.208984 0)"/>
      <use xlink:href="#DejaVuSans-20" transform="translate(227.685547 0)"/>
      <use xlink:href="#DejaVuSans-54" transform="translate(259.472656 0)"/>
      <use xlink:href="#DejaVuSans-69" transform="translate(317.431641 0)"/>
      <use xlink:href="#DejaVuSans-6d" transform="translate(345.214844 0)"/>
      <use xlink:href="#DejaVuSans-65" transform="translate(442.626953 0)"/>
      <use xlink:href="#DejaVuSans-20" transform="translate(504.150391 0)"/>
      <use xlink:href="#DejaVuSans-28" transform="translate(535.9375 0)"/>
      <use xlink:href="#DejaVuSans-73" transform="translate(574.951172 0)"/>
      <use xlink:href="#DejaVuSans-65" transform="translate(627.050781 0)"/>
      <use xlink:href="#DejaVuSans-63" transform="translate(688.574219 0)"/>
      <use xlink:href="#DejaVuSans-6f" transform="translate(743.554688 0)"/>
      <use xlink:href="#DejaVuSans-6e" transform="translate(804.736328 0)"/>
      <use xlink:href="#DejaVuSans-64" transform="translate(868.115234 0)"/>
      <use xlink:href="#DejaVuSans-73" transform="translate(931.591797 0)"/>
      <use xlink:href="#DejaVuSans-29" transform="translate(983.691406 0)"/>
     </g>
    </g>
   </g>
   <g id="line2d_29">
    <path d="M 72.975114 246.634282 
L 74.195008 286.010707 
L 75.414902 287.659894 
L 76.634797 285.632964 
L 77.854691 287.432669 
L 79.074585 286.648962 
L 80.29448 286.16412 
L 81.514374 285.944855 
L 82.734268 286.605543 
L 85.174057 286.884146 
L 86.393951 287.319057 
L 87.613846 287.141764 
L 88.83374 287.261166 
L 90.053634 285.891305 
L 91.273529 287.266231 
L 92.493423 286.622911 
L 93.713317 286.12649 
L 94.933212 285.984656 
L 96.153106 287.471023 
L 97.373 286.357333 
L 98.592895 287.092556 
L 99.812789 286.564295 
L 101.032683 286.635213 
L 102.252578 287.283599 
L 103.472472 287.161303 
L 105.912261 286.227077 
L 107.132155 286.454301 
L 108.352049 286.847241 
L 109.571944 286.4818 
L 110.791838 287.28794 
L 113.231627 287.023086 
L 114.451521 286.520877 
L 115.671415 286.645344 
L 116.89131 286.409435 
L 118.111204 285.805192 
L 119.331098 287.251035 
L 120.550993 287.649039 
L 121.770887 286.568637 
L 122.990781 286.125043 
L 125.43057 286.741588 
L 126.650464 286.430421 
L 127.870359 286.968089 
L 129.090253 287.319057 
L 130.310147 286.745207 
L 131.530042 287.428328 
L 132.749936 286.532455 
L 133.96983 286.188724 
L 135.189725 287.348727 
L 136.409619 286.829149 
L 137.629513 286.887041 
L 138.849408 286.764021 
L 140.069302 286.811058 
L 141.289196 286.221288 
L 142.509091 286.528837 
L 143.728985 286.638107 
L 144.948879 286.343584 
L 146.168774 286.993417 
L 147.388668 286.52956 
L 148.608562 287.075189 
L 149.828457 286.740141 
L 151.048351 286.040376 
L 152.268245 286.910921 
L 153.48814 287.34149 
L 154.708034 286.418119 
L 155.927928 286.956511 
L 157.147823 286.761127 
L 158.367717 285.774075 
L 159.587611 286.953616 
L 160.807506 286.858819 
L 162.0274 286.24155 
L 163.247294 286.539691 
L 164.467189 286.981115 
L 165.687083 286.854477 
L 166.906977 286.961576 
L 168.126872 287.334977 
L 169.346766 286.750272 
L 170.56666 287.580293 
L 173.006449 286.468051 
L 174.226343 287.102687 
L 175.446238 286.631594 
L 177.886026 287.442077 
L 179.105921 287.37912 
L 180.325815 286.741588 
L 181.545709 286.86895 
L 182.765604 286.779942 
L 183.985498 287.563649 
L 185.205392 286.608438 
L 186.425287 287.131633 
L 187.645181 286.902238 
L 188.865075 286.546928 
L 190.08497 286.978944 
L 191.304864 287.237285 
L 192.524758 287.125844 
L 193.744653 287.425433 
L 194.964547 286.060638 
L 196.184441 287.107753 
L 197.404336 286.685868 
L 198.62423 287.261889 
L 199.844124 286.693828 
L 201.064019 285.641648 
L 202.283913 286.835662 
L 203.503807 286.99993 
L 204.723702 286.804546 
L 205.943596 286.786454 
L 207.16349 287.128015 
L 208.383385 287.030323 
L 209.603279 287.057098 
L 210.823173 286.852306 
L 212.043068 287.106306 
L 213.262962 286.479629 
L 214.482856 287.388527 
L 215.702751 286.3747 
L 216.922645 286.651856 
L 218.142539 287.243074 
L 219.362434 287.145382 
L 220.582328 286.599754 
L 221.802222 286.580216 
L 223.022117 286.105504 
L 224.242011 286.418119 
L 225.461905 286.975326 
L 227.901694 287.302413 
L 229.121588 287.035388 
L 230.341483 286.363846 
L 231.561377 286.677908 
L 234.001166 286.813229 
L 235.22106 287.074465 
L 236.440954 287.540493 
L 237.660849 285.567112 
L 238.880743 287.087491 
L 240.100637 287.171434 
L 241.320532 286.432592 
L 242.540426 286.598307 
L 243.76032 287.238733 
L 244.980215 287.166368 
L 246.200109 287.506481 
L 247.420003 286.897172 
L 248.639898 286.642449 
L 249.859792 286.795862 
L 251.079686 287.094004 
L 252.299581 286.015049 
L 253.519475 286.730734 
L 254.739369 286.80744 
L 255.959264 287.112095 
L 257.179158 286.506404 
L 258.399052 286.959406 
L 259.618947 286.48976 
L 260.838841 286.617845 
L 262.058735 286.430421 
L 263.27863 286.851582 
L 265.718418 286.956511 
L 266.938313 286.806716 
L 268.158207 286.857372 
L 269.378101 286.689486 
L 270.597996 286.982562 
L 271.81789 285.865978 
L 273.037784 287.308926 
L 274.257679 286.391344 
L 275.477573 286.705406 
L 276.697467 286.586005 
L 277.917362 286.952169 
L 279.137256 286.989075 
L 281.577045 287.424709 
L 282.796939 286.750996 
L 284.016833 287.230049 
L 285.236728 286.658369 
L 286.456622 287.11716 
L 287.676516 286.236484 
L 288.896411 283.833259 
L 290.116305 285.58448 
L 291.336199 287.018021 
L 292.556094 286.739417 
L 293.775988 286.617845 
L 294.995882 286.341413 
L 296.215777 286.347925 
L 297.435671 287.382738 
L 299.87546 286.858819 
L 301.095354 287.552795 
L 302.315248 286.669224 
L 303.535143 286.39641 
L 304.755037 287.008613 
L 307.194826 286.757509 
L 308.41472 287.416749 
L 309.634614 287.105582 
L 310.854509 286.197407 
L 312.074403 287.633119 
L 313.294297 286.816124 
L 314.514192 287.249587 
L 315.734086 287.098345 
L 316.95398 285.94775 
L 318.173875 286.861713 
L 319.393769 286.923947 
L 320.613663 287.401553 
L 321.833558 287.024534 
L 323.053452 286.931183 
L 324.273346 286.556335 
L 325.493241 286.829873 
L 326.713135 286.601201 
L 327.933029 287.03973 
L 329.152924 286.504956 
L 330.372818 286.329834 
L 331.592712 286.31102 
L 332.812607 286.790796 
L 334.032501 287.418197 
L 335.252395 287.678709 
L 336.47229 286.2278 
L 337.692184 286.410883 
L 338.912078 286.976049 
L 340.131973 286.947827 
L 341.351867 286.533902 
L 343.791656 287.145382 
L 345.01155 285.695921 
L 346.231444 286.657646 
L 347.451339 287.312544 
L 348.671233 286.987628 
L 349.891127 287.146106 
L 351.111022 286.321874 
L 352.330916 286.99197 
L 353.55081 285.767562 
L 357.210493 286.935525 
L 358.430388 286.085242 
L 359.650282 287.335701 
L 360.870176 286.787902 
L 362.090071 287.148277 
L 364.529859 286.120701 
L 365.749754 286.963024 
L 366.969648 286.587452 
L 368.189542 286.627252 
L 369.409437 286.814677 
L 370.629331 286.86895 
L 371.849225 287.60345 
L 373.06912 286.605543 
L 374.289014 286.908027 
L 375.508908 286.934802 
L 376.728803 286.377595 
L 377.948697 287.051308 
L 379.168592 287.155513 
L 380.388486 286.902961 
L 381.60838 287.439906 
L 382.828275 286.213327 
L 384.048169 287.235114 
L 385.268063 286.704682 
L 386.487958 286.332729 
L 387.707852 287.557136 
L 388.927746 287.16275 
L 390.147641 287.046967 
L 391.367535 286.813953 
L 392.587429 286.936249 
L 393.807324 286.706853 
L 395.027218 286.72205 
L 396.247112 287.09328 
L 397.467007 286.690933 
L 398.686901 287.142488 
L 401.12669 286.607714 
L 402.346584 286.729286 
L 404.786373 286.591794 
L 406.006267 286.792244 
L 407.226161 286.826978 
L 408.446056 287.034665 
L 409.66595 286.766916 
L 410.885844 286.290034 
L 412.105739 287.094727 
L 413.325633 287.220641 
L 414.545527 285.872491 
L 415.765422 287.37116 
L 416.985316 286.817571 
L 418.20521 287.588253 
L 419.425105 286.663435 
L 420.644999 287.373331 
L 421.864893 286.763298 
L 423.084788 286.890659 
L 424.304682 286.14241 
L 425.524576 286.915263 
L 426.744471 287.046967 
L 427.964365 285.837032 
L 429.184259 286.943485 
L 430.404154 285.943408 
L 431.624048 286.220564 
L 432.843942 286.983286 
L 434.063837 287.044072 
L 435.283731 285.792166 
L 436.503625 286.114188 
L 437.72352 286.230695 
L 438.943414 286.736523 
L 440.163308 287.691734 
L 442.603097 287.033941 
L 445.042886 287.311097 
L 446.26278 286.649685 
L 447.482674 286.229248 
L 448.702569 287.814754 
L 449.922463 286.779218 
L 451.142357 287.088938 
L 452.362252 286.821189 
L 453.582146 287.403 
L 454.80204 286.98618 
L 456.021935 286.935525 
L 457.241829 285.638753 
L 458.461723 287.10124 
L 459.681618 287.42688 
L 460.901512 286.520877 
L 462.121406 287.036112 
L 463.341301 286.587452 
L 464.561195 287.26406 
L 465.781089 286.993417 
L 467.000984 286.377595 
L 468.220878 286.696722 
L 469.440772 285.573625 
L 471.880561 286.913816 
L 473.100455 287.327741 
L 474.32035 287.542664 
L 475.540244 287.267678 
L 476.760138 286.790796 
L 477.980033 287.280704 
L 479.199927 286.875463 
L 480.419821 286.757509 
L 481.639716 287.329188 
L 482.85961 286.469498 
L 484.079504 286.785731 
L 485.299399 286.818295 
L 486.519293 286.476011 
L 487.739187 287.036836 
L 488.959082 286.828426 
L 490.178976 287.018744 
L 491.39887 286.594688 
L 492.618765 286.7756 
L 493.838659 287.201103 
L 495.058553 286.756785 
L 496.278448 287.43484 
L 499.938131 286.568637 
L 501.158025 287.685222 
L 502.377919 287.622264 
L 503.597814 286.553441 
L 504.817708 286.627252 
L 506.037602 287.262613 
L 507.257497 286.043994 
L 508.477391 287.03177 
L 509.697285 286.502785 
L 510.91718 286.83928 
L 512.137074 286.373977 
L 513.356968 286.952893 
L 514.576863 286.943485 
L 515.796757 287.442077 
L 517.016651 287.036836 
L 518.236546 285.837032 
L 519.45644 286.766916 
L 520.676334 287.08532 
L 521.896229 285.646713 
L 523.116123 286.947827 
L 524.336017 287.279257 
L 525.555912 287.016574 
L 526.775806 286.612056 
L 527.9957 286.387002 
L 529.215595 286.909474 
L 530.435489 287.051308 
L 531.655383 286.435486 
L 532.875278 286.724221 
L 534.095172 287.361029 
L 535.315066 286.051955 
L 536.534961 286.748101 
L 537.754855 287.153342 
L 538.974749 287.759757 
L 540.194644 287.193143 
L 541.414538 287.287217 
L 542.634432 287.662065 
L 543.854327 286.206091 
L 545.074221 286.610609 
L 546.294115 285.978866 
L 547.51401 286.813229 
L 548.733904 286.859543 
L 549.953798 287.450037 
L 551.173693 287.402276 
L 553.613481 286.470945 
L 554.833376 286.24155 
L 556.05327 287.187354 
L 557.273164 287.038283 
L 558.493059 287.501416 
L 559.712953 287.615752 
L 560.932847 287.344385 
L 562.152742 287.298071 
L 564.59253 286.881976 
L 565.812425 287.62733 
L 567.032319 287.251758 
L 568.252213 287.168539 
L 569.472108 288.186708 
L 570.692002 287.892908 
L 571.911896 287.737324 
L 573.131791 287.890013 
L 574.351685 287.256824 
L 575.571579 287.387803 
L 576.791474 287.717786 
L 578.011368 287.200379 
L 579.231262 287.848042 
L 580.451157 287.958759 
L 581.671051 286.997035 
L 582.890945 287.55786 
L 584.11084 287.651934 
L 585.330734 287.96889 
L 586.550628 287.992771 
L 587.770523 285.567836 
L 588.990417 287.190248 
L 590.210311 287.533256 
L 591.430206 288.301044 
L 592.6501 287.616475 
L 593.869994 287.597661 
L 595.089889 287.268402 
L 596.309783 287.286493 
L 597.529677 287.853107 
L 598.749572 287.41096 
L 599.969466 287.707655 
L 601.18936 286.85303 
L 602.409255 287.44063 
L 603.629149 287.438459 
L 604.849043 288.015927 
L 606.068938 287.793768 
L 607.288832 286.846517 
L 608.508726 287.3632 
L 610.948515 288.09987 
L 613.388304 287.600555 
L 614.608198 287.439906 
L 615.828092 287.952247 
L 617.047987 287.620817 
L 618.267881 287.975403 
L 620.70767 287.539769 
L 621.927564 288.264138 
L 623.147458 287.809689 
L 624.367353 286.948551 
L 625.587247 287.877711 
L 626.807141 287.79811 
L 628.027036 287.565097 
L 629.24693 287.099069 
L 630.466824 288.240257 
L 631.686719 287.631672 
L 632.906613 287.462339 
L 634.126507 288.209141 
L 635.346402 286.910921 
L 636.566296 287.054203 
L 637.78619 287.347279 
L 639.006085 287.266955 
L 640.225979 287.327741 
L 641.445873 287.519507 
L 642.665768 286.760403 
L 643.885662 288.437813 
L 645.105556 288.013033 
L 646.325451 287.198932 
L 647.545345 287.559307 
L 648.765239 287.525296 
L 649.985134 287.717786 
L 651.205028 288.127369 
L 652.424922 287.738048 
L 653.644817 287.756139 
L 654.864711 287.44063 
L 656.084605 287.368265 
L 657.3045 287.108476 
L 658.524394 287.706207 
L 660.964183 287.270573 
L 662.184077 287.903039 
L 663.403971 288.259072 
L 664.623866 287.687393 
L 665.84376 287.446419 
L 667.063654 287.392145 
L 668.283549 287.489837 
L 669.503443 287.920406 
L 670.723337 287.413855 
L 671.943232 287.727193 
L 674.38302 287.128739 
L 675.602915 287.584635 
L 676.822809 287.086767 
L 678.042703 287.647592 
L 679.262598 287.733706 
L 680.482492 287.442077 
L 681.702386 288.064412 
L 681.702386 288.064412 
" clip-path="url(#p546b1428a9)" style="fill: none; stroke: #00d4ff; stroke-opacity: 0.2; stroke-width: 0.6; stroke-linecap: square"/>
   </g>
   <g id="line2d_30">
    <path d="M 72.975114 280.003246 
L 74.195008 280.883371 
L 76.634797 282.081555 
L 77.854691 282.551756 
L 79.074585 282.551756 
L 80.29448 286.576742 
L 81.514374 286.707577 
L 82.734268 286.655764 
L 83.954163 286.818584 
L 85.174057 286.664448 
L 88.83374 286.790217 
L 90.053634 286.728129 
L 91.273529 286.796875 
L 96.153106 286.601201 
L 97.373 286.740431 
L 105.912261 286.769304 
L 108.352049 286.863812 
L 113.231627 286.659672 
L 116.89131 286.828209 
L 119.331098 286.645778 
L 122.990781 286.640857 
L 126.650464 286.84355 
L 129.090253 286.6939 
L 131.530042 286.853174 
L 135.189725 286.885377 
L 137.629513 286.753963 
L 140.069302 286.656054 
L 141.289196 286.736523 
L 143.728985 286.67921 
L 149.828457 286.70309 
L 152.268245 286.776685 
L 153.48814 286.654751 
L 155.927928 286.67552 
L 158.367717 286.675592 
L 164.467189 286.725017 
L 165.687083 286.905639 
L 173.006449 287.032638 
L 175.446238 287.015054 
L 183.985498 286.996456 
L 186.425287 286.935959 
L 190.08497 286.958103 
L 192.524758 286.920256 
L 194.964547 286.912441 
L 197.404336 286.807585 
L 203.503807 286.786816 
L 210.823173 286.90079 
L 223.022117 286.819742 
L 224.242011 286.858095 
L 226.6818 286.723425 
L 230.341483 286.854115 
L 231.561377 286.966353 
L 232.781271 286.825531 
L 240.100637 286.869022 
L 242.540426 286.920618 
L 243.76032 286.830814 
L 244.980215 286.953689 
L 246.200109 286.95434 
L 247.420003 286.838702 
L 251.079686 286.876765 
L 255.959264 286.71286 
L 258.399052 286.652073 
L 260.838841 286.76735 
L 277.917362 286.821189 
L 279.137256 286.957596 
L 280.35715 286.892541 
L 281.577045 286.965122 
L 282.796939 286.91823 
L 284.016833 286.642956 
L 285.236728 286.506187 
L 287.676516 286.459294 
L 291.336199 286.249437 
L 294.995882 286.379404 
L 296.215777 286.751358 
L 297.435671 286.859832 
L 299.87546 286.82459 
L 310.854509 287.012883 
L 313.294297 286.908389 
L 319.393769 286.881107 
L 325.493241 286.814315 
L 329.152924 286.731313 
L 331.592712 286.773212 
L 334.032501 286.768797 
L 337.692184 286.817933 
L 338.912078 286.901369 
L 342.571761 286.67921 
L 345.01155 286.828715 
L 351.111022 286.560749 
L 352.330916 286.68471 
L 355.990599 286.609813 
L 364.529859 286.707071 
L 366.969648 286.812216 
L 371.849225 286.829077 
L 375.508908 286.922283 
L 376.728803 286.984805 
L 380.388486 286.892324 
L 381.60838 286.834794 
L 385.268063 286.975109 
L 391.367535 286.907665 
L 398.686901 286.812361 
L 402.346584 286.796947 
L 412.105739 286.808743 
L 414.545527 286.871989 
L 418.20521 286.965557 
L 420.644999 286.839787 
L 421.864893 286.957235 
L 423.084788 286.803822 
L 424.304682 286.816413 
L 425.524576 286.651929 
L 434.063837 286.384542 
L 435.283731 286.570012 
L 437.72352 286.720747 
L 440.163308 286.848905 
L 442.603097 286.853174 
L 443.822991 287.023231 
L 446.26278 287.113325 
L 448.702569 287.03054 
L 451.142357 287.001884 
L 452.362252 286.834649 
L 456.021935 286.87018 
L 459.681618 286.890008 
L 468.220878 286.700124 
L 474.32035 286.84999 
L 475.540244 286.856069 
L 476.760138 287.031625 
L 479.199927 287.042697 
L 486.519293 286.811492 
L 492.618765 286.924598 
L 501.158025 287.037921 
L 504.817708 286.864319 
L 507.257497 286.85426 
L 509.697285 286.713149 
L 512.137074 286.842971 
L 513.356968 286.700413 
L 515.796757 286.77806 
L 518.236546 286.703308 
L 520.676334 286.800204 
L 527.9957 286.700992 
L 529.215595 286.872423 
L 531.655383 286.729721 
L 534.095172 286.858168 
L 537.754855 287.037632 
L 548.733904 286.836241 
L 549.953798 286.69419 
L 556.05327 287.116075 
L 559.712953 287.065492 
L 562.152742 287.282151 
L 563.372636 287.28027 
L 565.812425 287.434261 
L 570.692002 287.528118 
L 571.911896 287.611699 
L 574.351685 287.628633 
L 575.571579 287.707655 
L 578.011368 287.555183 
L 582.890945 287.446129 
L 585.330734 287.426663 
L 588.990417 287.497798 
L 593.869994 287.362548 
L 595.089889 287.57653 
L 602.409255 287.464655 
L 609.728621 287.611627 
L 612.168409 287.623495 
L 623.147458 287.715832 
L 625.587247 287.690142 
L 632.906613 287.531809 
L 635.346402 287.454958 
L 636.566296 287.497002 
L 637.78619 287.349016 
L 640.225979 287.4847 
L 641.445873 287.383679 
L 649.985134 287.751435 
L 652.424922 287.554025 
L 654.864711 287.602726 
L 660.964183 287.572912 
L 667.063654 287.650993 
L 669.503443 287.594259 
L 673.163126 287.48687 
L 678.042703 287.543628 
L 680.482492 287.526847 
L 681.702386 287.593198 
L 681.702386 287.593198 
" clip-path="url(#p546b1428a9)" style="fill: none; stroke: #00d4ff; stroke-opacity: 0.9; stroke-width: 1.5; stroke-linecap: square"/>
   </g>
   <g id="line2d_31">
    <path d="M 72.975114 36.437812 
L 74.195008 45.98631 
L 75.414902 44.54119 
L 76.634797 45.563701 
L 77.854691 45.58541 
L 79.074585 45.252534 
L 80.29448 44.667105 
L 82.734268 45.983415 
L 83.954163 44.88058 
L 85.174057 45.260494 
L 86.393951 44.848016 
L 88.83374 45.335029 
L 90.053634 45.765598 
L 91.273529 45.646196 
L 92.493423 44.986232 
L 93.713317 44.716312 
L 94.933212 45.480482 
L 97.373 45.482653 
L 98.592895 44.444222 
L 99.812789 44.641777 
L 101.032683 44.969588 
L 102.252578 45.461667 
L 103.472472 45.113594 
L 104.692366 44.565794 
L 105.912261 45.322727 
L 107.132155 45.348778 
L 108.352049 38.120287 
L 109.571944 45.880657 
L 110.791838 45.155565 
L 112.011732 45.365422 
L 114.451521 45.115765 
L 115.671415 45.448641 
L 116.89131 44.932682 
L 118.111204 45.365422 
L 119.331098 42.889832 
L 120.550993 45.335029 
L 121.770887 45.39075 
L 122.990781 45.202602 
L 125.43057 45.528242 
L 126.650464 45.84737 
L 127.870359 45.411012 
L 129.090253 45.610014 
L 130.310147 45.573108 
L 131.530042 45.212009 
L 132.749936 45.204049 
L 133.96983 45.589028 
L 135.189725 45.651986 
L 136.409619 45.843752 
L 137.629513 45.797438 
L 138.849408 38.36705 
L 140.069302 45.514493 
L 141.289196 45.225035 
L 142.509091 45.242402 
L 143.728985 45.623763 
L 144.948879 45.562254 
L 146.168774 44.851634 
L 147.388668 44.818346 
L 148.608562 45.573108 
L 149.828457 44.874067 
L 151.048351 44.504284 
L 152.268245 45.277861 
L 153.48814 44.782164 
L 154.708034 45.7779 
L 155.927928 44.886369 
L 157.147823 45.604949 
L 158.367717 44.714142 
L 159.587611 45.848093 
L 160.807506 44.916039 
L 163.247294 45.094055 
L 164.467189 45.400157 
L 165.687083 44.98985 
L 166.906977 45.294505 
L 169.346766 45.486995 
L 171.786555 45.201878 
L 173.006449 45.300294 
L 174.226343 45.194642 
L 175.446238 45.547057 
L 176.666132 44.825583 
L 177.886026 45.139645 
L 179.105921 44.732233 
L 180.325815 45.125172 
L 181.545709 44.40008 
L 182.765604 44.953668 
L 183.985498 45.175103 
L 185.205392 45.070899 
L 186.425287 44.824136 
L 187.645181 45.367593 
L 188.865075 44.456524 
L 190.08497 45.426208 
L 191.304864 45.487718 
L 192.524758 44.257521 
L 193.744653 44.593293 
L 194.964547 44.198183 
L 196.184441 44.314689 
L 197.404336 45.301741 
L 199.844124 44.541914 
L 201.064019 44.98189 
L 202.283913 44.947879 
L 203.503807 45.133132 
L 205.943596 44.702563 
L 207.16349 45.59916 
L 208.383385 44.903737 
L 209.603279 44.062137 
L 210.823173 44.877685 
L 212.043068 44.474615 
L 213.262962 44.724273 
L 214.482856 44.484022 
L 215.702751 44.516586 
L 216.922645 45.060044 
L 218.142539 45.205497 
L 219.362434 45.048466 
L 220.582328 44.150422 
L 221.802222 44.57882 
L 223.022117 44.499943 
L 224.242011 44.796637 
L 225.461905 45.379171 
L 226.6818 45.017349 
L 227.901694 44.40008 
L 229.121588 45.651262 
L 230.341483 44.335675 
L 231.561377 44.533954 
L 232.781271 43.963722 
L 234.001166 45.274243 
L 235.22106 44.85091 
L 237.660849 44.432644 
L 238.880743 44.718483 
L 241.320532 44.038257 
L 243.76032 43.931158 
L 244.980215 44.112792 
L 246.200109 44.740916 
L 248.639898 44.694603 
L 249.859792 44.253903 
L 251.079686 44.379094 
L 252.299581 44.158382 
L 253.519475 45.122277 
L 254.739369 44.214103 
L 255.959264 44.389225 
L 257.179158 44.156211 
L 258.399052 43.394937 
L 259.618947 43.190869 
L 260.838841 44.09832 
L 262.058735 43.72709 
L 264.498524 43.321125 
L 265.718418 42.587349 
L 266.938313 43.677882 
L 268.158207 43.308099 
L 269.378101 43.957932 
L 270.597996 43.073638 
L 273.037784 43.788599 
L 274.257679 44.083847 
L 275.477573 43.128635 
L 276.697467 43.586702 
L 277.917362 44.671446 
L 279.137256 42.685041 
L 280.35715 44.342188 
L 281.577045 43.358031 
L 282.796939 43.548349 
L 285.236728 44.752495 
L 286.456622 43.482498 
L 287.676516 43.895699 
L 288.896411 43.528811 
L 290.116305 43.524469 
L 291.336199 44.222787 
L 292.556094 44.237259 
L 293.775988 43.206065 
L 294.995882 44.337122 
L 296.215777 43.672093 
L 298.655565 44.046941 
L 299.87546 44.02306 
L 301.095354 44.313966 
L 302.315248 43.780639 
L 303.535143 44.38633 
L 304.755037 42.965815 
L 305.974931 44.349424 
L 307.194826 44.397909 
L 308.41472 44.195288 
L 309.634614 43.3877 
L 310.854509 44.603424 
L 312.074403 43.909448 
L 313.294297 43.364543 
L 314.514192 43.540389 
L 315.734086 43.288561 
L 316.95398 43.511443 
L 318.173875 43.573677 
L 319.393769 43.235011 
L 320.613663 43.410857 
L 321.833558 43.279153 
L 323.053452 43.789323 
L 324.273346 44.043323 
L 325.493241 44.016548 
L 326.713135 43.722024 
L 327.933029 43.826953 
L 329.152924 44.263311 
L 330.372818 43.632292 
L 332.812607 43.646041 
L 334.032501 43.106202 
L 335.252395 43.716959 
L 336.47229 43.402897 
L 337.692184 44.279231 
L 338.912078 43.533153 
L 340.131973 43.827676 
L 341.351867 43.767614 
L 342.571761 44.256798 
L 343.791656 44.489812 
L 345.01155 44.140291 
L 346.231444 42.834835 
L 347.451339 43.962998 
L 349.891127 44.102661 
L 351.111022 43.43329 
L 352.330916 44.353043 
L 353.55081 44.360279 
L 354.770705 44.222063 
L 355.990599 43.053376 
L 358.430388 44.155488 
L 359.650282 44.051283 
L 360.870176 44.203972 
L 362.090071 43.722024 
L 363.309965 43.667751 
L 364.529859 43.182185 
L 365.749754 43.795112 
L 366.969648 43.834189 
L 368.189542 44.251009 
L 369.409437 43.509996 
L 370.629331 44.126542 
L 371.849225 44.140291 
L 374.289014 43.495523 
L 375.508908 43.850833 
L 376.728803 43.440526 
L 380.388486 43.892804 
L 381.60838 44.50139 
L 382.828275 43.964445 
L 384.048169 44.361003 
L 386.487958 43.414475 
L 387.707852 44.141015 
L 388.927746 43.290008 
L 390.147641 44.70184 
L 391.367535 43.831295 
L 392.587429 44.251009 
L 393.807324 44.107003 
L 395.027218 44.40008 
L 396.247112 44.293704 
L 397.467007 44.484022 
L 398.686901 44.273442 
L 399.906795 44.674341 
L 401.12669 44.005693 
L 402.346584 44.751047 
L 404.786373 43.682224 
L 407.226161 45.109975 
L 408.446056 43.696697 
L 409.66595 44.004969 
L 410.885844 44.546256 
L 413.325633 44.278507 
L 415.765422 44.738745 
L 416.985316 44.274165 
L 418.20521 44.047664 
L 419.425105 44.989127 
L 420.644999 43.679329 
L 421.864893 43.716235 
L 424.304682 44.204695 
L 425.524576 44.714865 
L 426.744471 44.007864 
L 427.964365 43.527364 
L 429.184259 43.821887 
L 430.404154 44.77348 
L 431.624048 44.113516 
L 432.843942 44.662763 
L 434.063837 44.681578 
L 435.283731 44.531059 
L 436.503625 43.626503 
L 437.72352 43.512167 
L 438.943414 44.08457 
L 443.822991 44.816899 
L 445.042886 43.843596 
L 446.26278 44.237259 
L 447.482674 44.311071 
L 448.702569 44.740916 
L 449.922463 43.60407 
L 451.142357 44.514416 
L 452.362252 44.344359 
L 453.582146 45.12879 
L 454.80204 44.262587 
L 456.021935 43.781363 
L 457.241829 43.507102 
L 458.461723 43.854451 
L 459.681618 45.112146 
L 460.901512 43.916685 
L 462.121406 44.368963 
L 463.341301 44.414552 
L 464.561195 44.025955 
L 465.781089 44.353043 
L 467.000984 44.986956 
L 468.220878 44.487641 
L 469.440772 43.700315 
L 470.660667 44.235812 
L 471.880561 44.06069 
L 473.100455 44.228576 
L 474.32035 44.197459 
L 475.540244 44.02306 
L 476.760138 44.349424 
L 479.199927 44.179368 
L 481.639716 44.870449 
L 482.85961 44.498495 
L 484.079504 43.896423 
L 485.299399 43.669922 
L 486.519293 44.532507 
L 487.739187 44.964523 
L 492.618765 44.116411 
L 493.838659 44.133055 
L 495.058553 43.809585 
L 496.278448 44.333504 
L 497.498342 43.827676 
L 498.718236 44.566518 
L 499.938131 44.011482 
L 501.158025 44.643948 
L 502.377919 44.126542 
L 503.597814 43.730708 
L 504.817708 44.472444 
L 506.037602 44.266205 
L 507.257497 43.716959 
L 509.697285 44.111345 
L 510.91718 44.630199 
L 512.137074 44.900118 
L 513.356968 44.57882 
L 514.576863 44.392843 
L 515.796757 44.537572 
L 517.016651 45.012283 
L 518.236546 43.858793 
L 519.45644 44.399356 
L 521.896229 44.848016 
L 523.116123 45.245297 
L 524.336017 44.163448 
L 525.555912 44.68013 
L 526.775806 44.182262 
L 527.9957 44.661315 
L 529.215595 44.078781 
L 530.435489 44.235088 
L 531.655383 44.844398 
L 532.875278 44.36245 
L 534.095172 44.70184 
L 535.315066 44.412382 
L 536.534961 44.935577 
L 537.754855 44.474615 
L 538.974749 44.567965 
L 540.194644 44.908802 
L 541.414538 44.972483 
L 542.634432 44.244496 
L 545.074221 44.913868 
L 546.294115 45.130237 
L 547.51401 44.817623 
L 548.733904 44.700392 
L 549.953798 44.232194 
L 551.173693 44.227128 
L 552.393587 44.716312 
L 553.613481 44.685196 
L 554.833376 44.20759 
L 556.05327 44.6027 
L 557.273164 44.572307 
L 560.932847 44.039704 
L 562.152742 45.002876 
L 563.372636 44.260416 
L 564.59253 44.507903 
L 565.812425 45.09695 
L 567.032319 44.617897 
L 568.252213 45.224311 
L 569.472108 44.95005 
L 570.692002 45.329964 
L 573.131791 44.573754 
L 574.351685 44.671446 
L 575.571579 44.359555 
L 576.791474 44.622962 
L 578.011368 44.353766 
L 579.231262 45.243126 
L 580.451157 44.196735 
L 581.671051 44.444222 
L 582.890945 44.50935 
L 584.11084 44.278507 
L 585.330734 44.790848 
L 586.550628 44.802426 
L 587.770523 43.054823 
L 588.990417 44.917486 
L 590.210311 44.995639 
L 591.430206 44.909526 
L 592.6501 45.047742 
L 593.869994 44.847292 
L 595.089889 44.389225 
L 601.18936 44.486193 
L 602.409255 44.723549 
L 603.629149 44.404421 
L 604.849043 44.349424 
L 606.068938 44.793743 
L 607.288832 44.634541 
L 608.508726 44.807492 
L 609.728621 44.799532 
L 610.948515 44.46376 
L 612.168409 44.2691 
L 613.388304 44.553492 
L 614.608198 45.549952 
L 615.828092 44.547703 
L 617.047987 45.490613 
L 619.487775 44.688814 
L 620.70767 45.116488 
L 621.927564 37.095606 
L 623.147458 44.692432 
L 625.587247 44.515863 
L 626.807141 45.195366 
L 628.027036 44.558558 
L 629.24693 44.644672 
L 630.466824 45.34516 
L 631.686719 45.502915 
L 635.346402 44.711971 
L 636.566296 45.091884 
L 637.78619 45.179445 
L 639.006085 44.716312 
L 640.225979 44.677959 
L 641.445873 45.396539 
L 642.665768 44.728614 
L 643.885662 45.311149 
L 646.325451 45.191747 
L 647.545345 44.196012 
L 648.765239 44.31686 
L 649.985134 45.303912 
L 651.205028 44.709076 
L 652.424922 44.955115 
L 653.644817 44.414552 
L 654.864711 45.20622 
L 656.084605 45.327069 
L 657.3045 45.048466 
L 658.524394 45.400881 
L 659.744288 44.975377 
L 660.964183 45.062215 
L 662.184077 44.049835 
L 664.623866 44.439156 
L 667.063654 44.369686 
L 668.283549 44.984061 
L 669.503443 45.198984 
L 670.723337 45.105634 
L 671.943232 45.506533 
L 673.163126 44.889264 
L 674.38302 45.0434 
L 675.602915 45.033269 
L 676.822809 44.672894 
L 678.042703 45.326345 
L 679.262598 44.59474 
L 680.482492 44.50139 
L 681.702386 44.76552 
L 681.702386 44.76552 
" clip-path="url(#p546b1428a9)" style="fill: none; stroke: #ff79c6; stroke-opacity: 0.2; stroke-width: 0.6; stroke-linecap: square"/>
   </g>
   <g id="line2d_32">
    <path d="M 72.975114 43.894493 
L 75.414902 44.170594 
L 76.634797 44.372018 
L 79.074585 44.422874 
L 80.29448 45.305143 
L 81.514374 45.191313 
L 83.954163 45.224456 
L 88.83374 45.252316 
L 91.273529 45.256948 
L 93.713317 45.238784 
L 99.812789 45.030592 
L 102.252578 45.078063 
L 103.472472 44.347109 
L 113.231627 44.59901 
L 114.451521 44.353115 
L 115.671415 45.074589 
L 119.331098 45.030302 
L 125.43057 45.215338 
L 126.650464 45.447556 
L 130.310147 45.499224 
L 132.749936 45.573977 
L 133.96983 44.825945 
L 140.069302 44.84172 
L 144.948879 44.565215 
L 146.168774 45.178939 
L 153.48814 45.081319 
L 154.708034 45.184294 
L 157.147823 45.134145 
L 160.807506 45.22612 
L 163.247294 45.226627 
L 169.346766 45.272072 
L 171.786555 45.259915 
L 174.226343 45.218667 
L 199.844124 44.791789 
L 201.064019 44.802716 
L 203.503807 45.001718 
L 204.723702 44.877758 
L 214.482856 44.735706 
L 215.702751 44.660375 
L 221.802222 44.825293 
L 235.22106 44.680347 
L 236.440954 44.519047 
L 247.420003 44.305137 
L 249.859792 44.434597 
L 252.299581 44.484746 
L 255.959264 44.135732 
L 259.618947 43.910968 
L 260.838841 43.657475 
L 268.158207 43.439513 
L 284.016833 43.838603 
L 285.236728 43.723906 
L 286.456622 43.87768 
L 294.995882 43.870516 
L 297.435671 43.974649 
L 298.655565 43.991003 
L 299.87546 43.863859 
L 302.315248 43.984273 
L 305.974931 44.040356 
L 309.634614 43.910027 
L 310.854509 43.80025 
L 312.074403 43.854813 
L 318.173875 43.490241 
L 323.053452 43.640831 
L 326.713135 43.763634 
L 330.372818 43.762621 
L 332.812607 43.724846 
L 337.692184 43.718912 
L 340.131973 43.852063 
L 342.571761 43.84953 
L 345.01155 43.895048 
L 347.451339 43.937598 
L 349.891127 43.993391 
L 352.330916 43.799309 
L 353.55081 43.931375 
L 358.430388 43.942519 
L 360.870176 43.768916 
L 362.090071 43.730129 
L 363.309965 43.849892 
L 375.508908 43.75741 
L 376.728803 43.85655 
L 381.60838 43.858431 
L 403.566478 44.336688 
L 407.226161 44.284441 
L 414.545527 44.346892 
L 421.864893 44.234437 
L 424.304682 44.068071 
L 425.524576 44.140653 
L 426.744471 44.053092 
L 430.404154 44.303907 
L 434.063837 44.133489 
L 437.72352 44.236898 
L 438.943414 44.307236 
L 442.603097 44.158889 
L 445.042886 44.27952 
L 449.922463 44.380396 
L 452.362252 44.243193 
L 453.582146 44.204912 
L 454.80204 44.28502 
L 456.021935 44.202597 
L 458.461723 44.2691 
L 462.121406 44.232122 
L 465.781089 44.360207 
L 467.000984 44.255061 
L 469.440772 44.2691 
L 475.540244 44.182986 
L 477.980033 44.326268 
L 481.639716 44.28748 
L 484.079504 44.421427 
L 487.739187 44.401382 
L 490.178976 44.258752 
L 493.838659 44.321636 
L 496.278448 44.215984 
L 501.158025 44.178861 
L 506.037602 44.160987 
L 508.477391 44.243338 
L 515.796757 44.505949 
L 518.236546 44.641126 
L 520.676334 44.57759 
L 530.435489 44.432209 
L 532.875278 44.488871 
L 543.854327 44.731075 
L 560.932847 44.493719 
L 571.911896 44.838681 
L 573.131791 44.764363 
L 574.351685 44.826885 
L 579.231262 44.525343 
L 581.671051 44.56015 
L 582.890945 44.429677 
L 592.6501 44.589168 
L 593.869994 44.568327 
L 595.089889 44.719279 
L 602.409255 44.547776 
L 606.068938 44.6027 
L 608.508726 44.579905 
L 613.388304 44.821313 
L 615.828092 44.85764 
L 617.047987 44.087248 
L 623.147458 44.104398 
L 625.587247 44.044625 
L 628.027036 44.137396 
L 629.24693 44.912348 
L 631.686719 44.964161 
L 632.906613 45.030519 
L 635.346402 44.994554 
L 636.566296 45.069741 
L 639.006085 44.98891 
L 642.665768 44.97943 
L 645.105556 44.914374 
L 654.864711 44.965753 
L 656.084605 45.040288 
L 658.524394 44.865094 
L 664.623866 44.705313 
L 668.283549 44.711609 
L 673.163126 45.013007 
L 675.602915 44.987245 
L 681.702386 44.815693 
L 681.702386 44.815693 
" clip-path="url(#p546b1428a9)" style="fill: none; stroke: #ff79c6; stroke-opacity: 0.9; stroke-width: 1.5; stroke-linecap: square"/>
   </g>
   <g id="line2d_33">
    <path d="M 72.975114 255.624849 
L 74.195008 261.39809 
L 75.414902 262.460401 
L 76.634797 266.745827 
L 77.854691 267.436908 
L 79.074585 267.552691 
L 80.29448 266.672739 
L 81.514374 267.177843 
L 83.954163 267.130082 
L 85.174057 266.310916 
L 86.393951 266.643793 
L 87.613846 266.611953 
L 88.83374 267.199552 
L 90.053634 267.033838 
L 91.273529 266.491827 
L 92.493423 266.347822 
L 93.713317 267.598281 
L 94.933212 267.592492 
L 96.153106 266.742932 
L 97.373 266.739314 
L 98.592895 266.521497 
L 99.812789 266.933251 
L 101.032683 267.132253 
L 102.252578 267.081598 
L 103.472472 267.152515 
L 104.692366 265.789892 
L 105.912261 266.778391 
L 107.132155 266.407161 
L 108.352049 266.839177 
L 109.571944 267.025878 
L 110.791838 266.863057 
L 112.011732 267.312441 
L 113.231627 266.336967 
L 114.451521 267.547626 
L 115.671415 266.862334 
L 116.89131 266.721223 
L 119.331098 267.111268 
L 120.550993 267.104031 
L 121.770887 267.26468 
L 122.990781 267.555586 
L 124.210676 265.66253 
L 125.43057 265.085785 
L 126.650464 266.697343 
L 127.870359 267.012852 
L 130.310147 266.159674 
L 131.530042 267.148897 
L 132.749936 266.884043 
L 135.189725 266.62136 
L 137.629513 266.950618 
L 138.849408 265.690029 
L 140.069302 267.167712 
L 141.289196 267.652554 
L 142.509091 267.720577 
L 143.728985 266.475184 
L 146.168774 266.304403 
L 147.388668 265.89482 
L 148.608562 266.967986 
L 149.828457 267.348623 
L 151.048351 266.413674 
L 152.268245 266.892003 
L 153.48814 266.983182 
L 154.708034 266.322494 
L 155.927928 267.601899 
L 157.147823 267.39566 
L 158.367717 266.871741 
L 159.587611 267.217643 
L 160.807506 267.295797 
L 162.0274 266.422358 
L 163.247294 266.829046 
L 164.467189 266.39703 
L 165.687083 266.425252 
L 166.906977 267.084493 
L 168.126872 267.181461 
L 169.346766 266.648858 
L 170.56666 266.546101 
L 171.786555 267.288561 
L 173.006449 266.093823 
L 174.226343 266.698066 
L 175.446238 266.938316 
L 176.666132 267.346452 
L 177.886026 267.522298 
L 179.105921 266.880425 
L 180.325815 267.545455 
L 181.545709 267.001997 
L 182.765604 266.785627 
L 183.985498 266.818915 
L 186.425287 267.314612 
L 187.645181 266.729907 
L 188.865075 267.004168 
L 190.08497 267.520127 
L 191.304864 266.503406 
L 192.524758 266.624978 
L 193.744653 266.912265 
L 194.964547 270.07966 
L 196.184441 267.267575 
L 197.404336 266.917331 
L 198.62423 267.185803 
L 199.844124 267.297968 
L 201.064019 266.847861 
L 202.283913 266.245064 
L 203.503807 267.359478 
L 204.723702 266.622807 
L 207.16349 267.743733 
L 208.383385 267.629398 
L 209.603279 267.119951 
L 210.823173 266.986077 
L 212.043068 266.574323 
L 213.262962 267.584532 
L 214.482856 266.839177 
L 215.702751 267.107649 
L 216.922645 266.771878 
L 218.142539 267.07002 
L 219.362434 266.974499 
L 220.582328 266.681422 
L 221.802222 267.88195 
L 223.022117 267.111268 
L 224.242011 266.624254 
L 225.461905 267.001997 
L 226.6818 266.791417 
L 227.901694 267.591044 
L 229.121588 266.826875 
L 230.341483 267.455723 
L 231.561377 267.384082 
L 232.781271 266.795035 
L 234.001166 267.751694 
L 235.22106 266.782009 
L 236.440954 267.033838 
L 237.660849 267.152515 
L 238.880743 267.120675 
L 241.320532 267.210407 
L 242.540426 267.089558 
L 243.76032 267.244418 
L 244.980215 268.105556 
L 246.200109 267.818993 
L 247.420003 266.70675 
L 248.639898 266.92312 
L 249.859792 266.213224 
L 251.079686 266.826151 
L 252.299581 267.004892 
L 253.519475 267.596834 
L 254.739369 267.549073 
L 255.959264 267.360925 
L 257.179158 266.609058 
L 258.399052 267.679329 
L 259.618947 266.839177 
L 260.838841 267.231393 
L 262.058735 266.500511 
L 263.27863 267.175672 
L 264.498524 266.762471 
L 265.718418 267.451381 
L 266.938313 266.942658 
L 268.158207 267.218367 
L 269.378101 267.275535 
L 270.597996 267.074362 
L 271.81789 267.111268 
L 273.037784 266.512813 
L 274.257679 266.82181 
L 275.477573 266.554785 
L 276.697467 267.500589 
L 277.917362 266.802995 
L 279.137256 266.361571 
L 280.35715 267.237182 
L 281.577045 267.722748 
L 282.796939 267.065678 
L 284.016833 266.867399 
L 285.236728 267.300139 
L 286.456622 267.354412 
L 287.676516 267.105478 
L 288.896411 266.59748 
L 291.336199 267.035285 
L 292.556094 267.227051 
L 293.775988 266.635833 
L 294.995882 267.265404 
L 296.215777 267.060612 
L 297.435671 267.381187 
L 298.655565 266.98463 
L 299.87546 266.778391 
L 301.095354 267.535324 
L 303.535143 267.832018 
L 305.974931 266.847137 
L 307.194826 267.020088 
L 308.41472 267.371056 
L 309.634614 267.456446 
L 310.854509 267.248037 
L 312.074403 267.261062 
L 313.294297 266.696619 
L 314.514192 267.432566 
L 315.734086 267.802349 
L 316.95398 270.547135 
L 318.173875 267.401449 
L 319.393769 266.698066 
L 320.613663 267.521574 
L 321.833558 267.396384 
L 324.273346 267.631568 
L 326.713135 267.121399 
L 327.933029 267.0939 
L 329.152924 267.372504 
L 330.372818 267.461512 
L 331.592712 267.122846 
L 332.812607 267.52664 
L 334.032501 267.012852 
L 335.252395 267.088111 
L 336.47229 266.749445 
L 337.692184 267.0541 
L 338.912078 266.866676 
L 340.131973 267.229222 
L 341.351867 267.204618 
L 342.571761 267.341387 
L 343.791656 267.14745 
L 345.01155 267.452828 
L 346.231444 266.627149 
L 347.451339 267.036732 
L 348.671233 266.526562 
L 349.891127 267.685118 
L 351.111022 267.082322 
L 352.330916 266.830493 
L 353.55081 267.265404 
L 354.770705 267.188698 
L 355.990599 266.576494 
L 357.210493 267.377569 
L 358.430388 267.112715 
L 359.650282 267.323296 
L 360.870176 266.921673 
L 362.090071 267.396384 
L 363.309965 266.875359 
L 364.529859 266.892003 
L 365.749754 267.481774 
L 366.969648 267.714064 
L 368.189542 267.728537 
L 369.409437 267.203894 
L 370.629331 267.027325 
L 371.849225 267.37178 
L 373.06912 266.949171 
L 374.289014 267.787876 
L 375.508908 267.489734 
L 376.728803 266.960026 
L 377.948697 267.476708 
L 379.168592 267.012852 
L 381.60838 267.180014 
L 382.828275 267.509996 
L 384.048169 266.936869 
L 385.268063 266.928909 
L 386.487958 267.177843 
L 387.707852 266.699514 
L 388.927746 267.204618 
L 390.147641 267.151792 
L 391.367535 267.557757 
L 392.587429 265.659636 
L 393.807324 266.965091 
L 395.027218 267.19521 
L 396.247112 267.770508 
L 397.467007 267.586702 
L 398.686901 266.944829 
L 399.906795 267.26468 
L 401.12669 266.586625 
L 402.346584 267.305928 
L 403.566478 266.892003 
L 404.786373 266.964368 
L 407.226161 267.475985 
L 408.446056 267.240076 
L 409.66595 266.609058 
L 410.885844 267.485392 
L 412.105739 267.157581 
L 413.325633 267.563546 
L 414.545527 266.640898 
L 415.765422 266.726288 
L 416.985316 267.043969 
L 418.20521 266.865952 
L 419.425105 267.128635 
L 420.644999 266.71471 
L 421.864893 266.776944 
L 424.304682 267.415922 
L 425.524576 266.362295 
L 426.744471 267.751694 
L 427.964365 267.069296 
L 429.184259 267.205342 
L 431.624048 266.691553 
L 432.843942 267.66558 
L 435.283731 267.170607 
L 436.503625 266.242894 
L 437.72352 266.526562 
L 438.943414 270.92343 
L 440.163308 267.180014 
L 441.383203 267.143832 
L 442.603097 267.528811 
L 443.822991 267.385529 
L 445.042886 266.826151 
L 446.26278 267.559928 
L 447.482674 266.596756 
L 448.702569 267.509996 
L 449.922463 266.794311 
L 451.142357 266.847861 
L 452.362252 267.55848 
L 453.582146 266.977393 
L 454.80204 267.300139 
L 456.021935 267.104755 
L 457.241829 266.443343 
L 458.461723 266.727012 
L 459.681618 267.670645 
L 460.901512 267.473814 
L 462.121406 267.456446 
L 463.341301 267.25672 
L 464.561195 267.570782 
L 465.781089 265.973698 
L 467.000984 267.202447 
L 468.220878 266.721223 
L 469.440772 266.971604 
L 470.660667 267.908725 
L 471.880561 267.324019 
L 473.100455 267.219091 
L 474.32035 267.456446 
L 475.540244 267.234287 
L 476.760138 267.287837 
L 480.419821 266.994761 
L 481.639716 267.421711 
L 484.079504 267.211131 
L 486.519293 267.109097 
L 487.739187 266.507748 
L 488.959082 267.324019 
L 490.178976 267.756759 
L 491.39887 266.878254 
L 492.618765 267.19304 
L 493.838659 267.111268 
L 495.058553 267.267575 
L 496.278448 266.949895 
L 498.718236 266.793587 
L 499.938131 267.177843 
L 501.158025 267.288561 
L 502.377919 267.75097 
L 503.597814 266.747998 
L 506.037602 267.541836 
L 507.257497 266.920949 
L 508.477391 266.732078 
L 509.697285 266.781285 
L 510.91718 267.329808 
L 512.137074 267.516509 
L 513.356968 266.611953 
L 514.576863 266.525115 
L 515.796757 266.936869 
L 517.016651 267.014299 
L 518.236546 266.728459 
L 519.45644 267.156134 
L 520.676334 266.771154 
L 523.116123 267.369609 
L 524.336017 267.051929 
L 525.555912 267.064231 
L 526.775806 266.864505 
L 527.9957 267.504931 
L 529.215595 266.778391 
L 530.435489 267.578742 
L 531.655383 267.14745 
L 534.095172 266.782733 
L 536.534961 266.939764 
L 537.754855 266.694448 
L 538.974749 266.604716 
L 540.194644 267.462959 
L 541.414538 267.332703 
L 542.634432 266.418016 
L 543.854327 267.235011 
L 545.074221 266.874636 
L 546.294115 266.886214 
L 547.51401 266.440449 
L 548.733904 267.27843 
L 549.953798 266.795035 
L 551.173693 267.732879 
L 553.613481 266.223355 
L 554.833376 267.160476 
L 556.05327 266.363019 
L 557.273164 266.772602 
L 558.493059 266.536693 
L 559.712953 267.191592 
L 560.932847 270.146959 
L 562.152742 267.442697 
L 563.372636 267.772679 
L 565.812425 267.435461 
L 567.032319 267.044692 
L 568.252213 267.309546 
L 569.472108 266.819639 
L 570.692002 267.478879 
L 571.911896 267.443421 
L 573.131791 266.531628 
L 574.351685 267.021536 
L 575.571579 266.925291 
L 576.791474 266.238552 
L 578.011368 266.596756 
L 579.231262 267.231393 
L 580.451157 266.297891 
L 581.671051 267.100413 
L 582.890945 267.203171 
L 584.11084 267.07798 
L 585.330734 267.385529 
L 586.550628 266.593138 
L 587.770523 264.919347 
L 588.990417 266.719052 
L 590.210311 266.684317 
L 591.430206 267.181461 
L 592.6501 267.021536 
L 593.869994 266.020011 
L 595.089889 267.169159 
L 596.309783 266.576494 
L 597.529677 267.237182 
L 598.749572 266.518602 
L 599.969466 267.182909 
L 601.18936 265.889755 
L 602.409255 267.07798 
L 603.629149 267.051205 
L 604.849043 266.648858 
L 606.068938 266.844966 
L 607.288832 266.234933 
L 608.508726 267.00851 
L 609.728621 265.931726 
L 610.948515 267.051205 
L 612.168409 266.03376 
L 613.388304 266.175595 
L 614.608198 267.282048 
L 615.828092 266.716881 
L 617.047987 266.285589 
L 618.267881 266.792864 
L 620.70767 266.957855 
L 621.927564 266.892003 
L 623.147458 267.069296 
L 624.367353 266.937593 
L 625.587247 267.126464 
L 626.807141 266.67491 
L 629.24693 266.824704 
L 630.466824 267.183632 
L 631.686719 266.892003 
L 634.126507 266.946277 
L 636.566296 267.243695 
L 639.006085 267.055547 
L 640.225979 267.439079 
L 641.445873 266.380386 
L 642.665768 267.068573 
L 643.885662 267.279877 
L 645.105556 267.12357 
L 646.325451 267.497694 
L 647.545345 267.186527 
L 648.765239 267.216196 
L 649.985134 266.999103 
L 651.205028 267.127188 
L 652.424922 266.823257 
L 653.644817 266.940487 
L 654.864711 267.386976 
L 658.524394 267.104755 
L 659.744288 266.339862 
L 660.964183 266.487486 
L 662.184077 267.629398 
L 663.403971 267.219814 
L 664.623866 267.287837 
L 665.84376 266.540312 
L 667.063654 267.242247 
L 668.283549 267.132977 
L 669.503443 267.275535 
L 670.723337 267.079427 
L 671.943232 267.397107 
L 673.163126 266.660437 
L 674.38302 267.12357 
L 675.602915 267.020088 
L 676.822809 267.299415 
L 678.042703 266.640175 
L 679.262598 267.012128 
L 680.482492 266.847137 
L 681.702386 267.00851 
L 681.702386 267.00851 
" clip-path="url(#p546b1428a9)" style="fill: none; stroke: #f1fa8c; stroke-opacity: 0.2; stroke-width: 0.6; stroke-linecap: square"/>
   </g>
   <g id="line2d_34">
    <path d="M 72.975114 263.536461 
L 75.414902 264.383668 
L 77.854691 264.93505 
L 79.074585 264.93505 
L 80.29448 266.003656 
L 82.734268 266.943382 
L 85.174057 266.948447 
L 87.613846 266.809869 
L 92.493423 266.90018 
L 97.373 266.918127 
L 98.592895 266.984196 
L 104.692366 266.766161 
L 109.571944 266.80531 
L 110.791838 266.776292 
L 114.451521 266.958072 
L 118.111204 267.077691 
L 120.550993 266.787581 
L 122.990781 266.717605 
L 129.090253 266.559778 
L 130.310147 266.466355 
L 132.749936 266.768839 
L 133.96983 266.668107 
L 136.409619 266.789246 
L 137.629513 266.945336 
L 142.509091 266.71196 
L 148.608562 266.744162 
L 149.828457 266.604354 
L 154.708034 267.001491 
L 155.927928 267.034272 
L 157.147823 266.941645 
L 159.587611 266.933685 
L 160.807506 266.877892 
L 162.0274 266.954092 
L 170.56666 266.730196 
L 174.226343 266.914436 
L 182.765604 267.104393 
L 188.865075 266.931225 
L 190.08497 267.260628 
L 192.524758 267.287403 
L 201.064019 267.306652 
L 202.283913 267.073059 
L 205.943596 267.109531 
L 207.16349 267.037166 
L 209.603279 267.170245 
L 221.802222 267.001635 
L 227.901694 267.146364 
L 235.22106 267.152009 
L 237.660849 267.153746 
L 238.880743 267.139779 
L 240.100637 267.270831 
L 243.76032 267.258964 
L 246.200109 267.135582 
L 248.639898 267.15295 
L 251.079686 267.210552 
L 252.299581 267.060902 
L 255.959264 267.091006 
L 260.838841 267.115899 
L 263.27863 267.041002 
L 264.498524 267.107649 
L 268.158207 267.002504 
L 271.81789 267.046357 
L 275.477573 266.925291 
L 277.917362 266.969144 
L 280.35715 267.023489 
L 282.796939 267.131819 
L 285.236728 267.047949 
L 287.676516 267.114307 
L 288.896411 267.005615 
L 293.775988 267.016036 
L 294.995882 266.983327 
L 299.87546 267.253826 
L 307.194826 267.363603 
L 309.634614 267.249918 
L 310.854509 267.246951 
L 312.074403 267.56825 
L 314.514192 267.591479 
L 323.053452 267.622233 
L 324.273346 267.30477 
L 330.372818 267.275752 
L 332.812607 267.160331 
L 341.351867 267.076098 
L 354.770705 267.096867 
L 357.210493 267.107505 
L 360.870176 267.114596 
L 365.749754 267.256431 
L 380.388486 267.238267 
L 385.268063 267.09021 
L 386.487958 267.1447 
L 387.707852 267.000695 
L 391.367535 267.031088 
L 395.027218 267.130082 
L 398.686901 267.017121 
L 401.12669 267.174731 
L 403.566478 267.149766 
L 404.786373 267.052001 
L 408.446056 267.19304 
L 410.885844 267.109965 
L 414.545527 267.04614 
L 418.20521 266.976308 
L 419.425105 267.002142 
L 420.644999 266.882017 
L 423.084788 267.027397 
L 432.843942 267.068717 
L 434.063837 267.385891 
L 445.042886 267.544876 
L 446.26278 267.137319 
L 448.702569 267.158522 
L 456.021935 267.089775 
L 459.681618 267.198105 
L 462.121406 267.087966 
L 464.561195 267.102439 
L 465.781089 267.22061 
L 471.880561 267.129938 
L 473.100455 267.251221 
L 484.079504 267.124438 
L 487.739187 267.18754 
L 493.838659 267.067487 
L 496.278448 267.130951 
L 508.477391 267.103018 
L 509.697285 266.980433 
L 512.137074 266.99107 
L 514.576863 266.933251 
L 524.336017 267.041581 
L 526.775806 267.125741 
L 529.215595 267.107867 
L 535.315066 266.983182 
L 536.534961 267.038614 
L 537.754855 266.922541 
L 547.51401 266.996859 
L 548.733904 266.885925 
L 549.953798 266.960171 
L 552.393587 266.862768 
L 554.833376 266.90293 
L 556.05327 267.189783 
L 565.812425 267.62824 
L 567.032319 267.653423 
L 568.252213 267.291889 
L 570.692002 267.165034 
L 573.131791 266.940994 
L 574.351685 266.959664 
L 575.571579 266.858498 
L 578.011368 266.859005 
L 579.231262 266.822461 
L 580.451157 266.907851 
L 581.671051 266.865011 
L 582.890945 266.664417 
L 587.770523 266.788594 
L 590.210311 266.677153 
L 593.869994 266.604716 
L 595.089889 266.831072 
L 596.309783 266.748143 
L 598.749572 266.774483 
L 599.969466 266.737215 
L 601.18936 266.819711 
L 602.409255 266.726288 
L 603.629149 266.76949 
L 604.849043 266.638944 
L 606.068938 266.692205 
L 607.288832 266.57729 
L 610.948515 266.592848 
L 613.388304 266.551311 
L 620.70767 266.896635 
L 623.147458 266.834908 
L 626.807141 266.926521 
L 634.126507 267.00026 
L 635.346402 267.073493 
L 637.78619 267.017556 
L 643.885662 267.137102 
L 651.205028 267.157219 
L 653.644817 267.123353 
L 656.084605 266.965815 
L 659.744288 267.084565 
L 664.623866 267.026022 
L 667.063654 267.129214 
L 670.723337 267.075954 
L 678.042703 267.000952 
L 680.482492 266.993003 
L 681.702386 266.971242 
L 681.702386 266.971242 
" clip-path="url(#p546b1428a9)" style="fill: none; stroke: #f1fa8c; stroke-opacity: 0.9; stroke-width: 1.5; stroke-linecap: square"/>
   </g>
   <g id="patch_3">
    <path d="M 42.53875 301.037812 
L 42.53875 23.837812 
" style="fill: none; stroke: #21262d; stroke-width: 0.8; stroke-linejoin: miter; stroke-linecap: square"/>
   </g>
   <g id="patch_4">
    <path d="M 712.13875 301.037812 
L 712.13875 23.837812 
" style="fill: none; stroke: #21262d; stroke-width: 0.8; stroke-linejoin: miter; stroke-linecap: square"/>
   </g>
   <g id="patch_5">
    <path d="M 42.53875 301.037813 
L 712.13875 301.037813 
" style="fill: none; stroke: #21262d; stroke-width: 0.8; stroke-linejoin: miter; stroke-linecap: square"/>
   </g>
   <g id="patch_6">
    <path d="M 42.53875 23.837812 
L 712.13875 23.837812 
" style="fill: none; stroke: #21262d; stroke-width: 0.8; stroke-linejoin: miter; stroke-linecap: square"/>
   </g>
   <g id="text_17">
    <!-- Per-Step Training Time -->
    <g style="fill: #c9d1d9" transform="translate(286.909688 17.837812) scale(0.14 -0.14)">
     <defs>
      <path id="DejaVuSans-Bold-50" d="M 588 4666 
L 2584 4666 
Q 3475 4666 3951 4270 
Q 4428 3875 4428 3144 
Q 4428 2409 3951 2014 
Q 3475 1619 2584 1619 
L 1791 1619 
L 1791 0 
L 588 0 
L 588 4666 
z
M 1791 3794 
L 1791 2491 
L 2456 2491 
Q 2806 2491 2997 2661 
Q 3188 2831 3188 3144 
Q 3188 3456 2997 3625 
Q 2806 3794 2456 3794 
L 1791 3794 
z
" transform="scale(0.015625)"/>
      <path id="DejaVuSans-Bold-65" d="M 4031 1759 
L 4031 1441 
L 1416 1441 
Q 1456 1047 1700 850 
Q 1944 653 2381 653 
Q 2734 653 3104 758 
Q 3475 863 3866 1075 
L 3866 213 
Q 3469 63 3072 -14 
Q 2675 -91 2278 -91 
Q 1328 -91 801 392 
Q 275 875 275 1747 
Q 275 2603 792 3093 
Q 1309 3584 2216 3584 
Q 3041 3584 3536 3087 
Q 4031 2591 4031 1759 
z
M 2881 2131 
Q 2881 2450 2695 2645 
Q 2509 2841 2209 2841 
Q 1884 2841 1681 2658 
Q 1478 2475 1428 2131 
L 2881 2131 
z
" transform="scale(0.015625)"/>
      <path id="DejaVuSans-Bold-72" d="M 3138 2547 
Q 2991 2616 2845 2648 
Q 2700 2681 2553 2681 
Q 2122 2681 1889 2404 
Q 1656 2128 1656 1613 
L 1656 0 
L 538 0 
L 538 3500 
L 1656 3500 
L 1656 2925 
Q 1872 3269 2151 3426 
Q 2431 3584 2822 3584 
Q 2878 3584 2943 3579 
Q 3009 3575 3134 3559 
L 3138 2547 
z
" transform="scale(0.015625)"/>
      <path id="DejaVuSans-Bold-2d" d="M 347 2297 
L 2309 2297 
L 2309 1388 
L 347 1388 
L 347 2297 
z
" transform="scale(0.015625)"/>
      <path id="DejaVuSans-Bold-53" d="M 3834 4519 
L 3834 3531 
Q 3450 3703 3084 3790 
Q 2719 3878 2394 3878 
Q 1963 3878 1756 3759 
Q 1550 3641 1550 3391 
Q 1550 3203 1689 3098 
Q 1828 2994 2194 2919 
L 2706 2816 
Q 3484 2659 3812 2340 
Q 4141 2022 4141 1434 
Q 4141 663 3683 286 
Q 3225 -91 2284 -91 
Q 1841 -91 1394 -6 
Q 947 78 500 244 
L 500 1259 
Q 947 1022 1364 901 
Q 1781 781 2169 781 
Q 2563 781 2772 912 
Q 2981 1044 2981 1288 
Q 2981 1506 2839 1625 
Q 2697 1744 2272 1838 
L 1806 1941 
Q 1106 2091 782 2419 
Q 459 2747 459 3303 
Q 459 4000 909 4375 
Q 1359 4750 2203 4750 
Q 2588 4750 2994 4692 
Q 3400 4634 3834 4519 
z
" transform="scale(0.015625)"/>
      <path id="DejaVuSans-Bold-74" d="M 1759 4494 
L 1759 3500 
L 2913 3500 
L 2913 2700 
L 1759 2700 
L 1759 1216 
Q 1759 972 1856 886 
Q 1953 800 2241 800 
L 2816 800 
L 2816 0 
L 1856 0 
Q 1194 0 917 276 
Q 641 553 641 1216 
L 641 2700 
L 84 2700 
L 84 3500 
L 641 3500 
L 641 4494 
L 1759 4494 
z
" transform="scale(0.015625)"/>
      <path id="DejaVuSans-Bold-70" d="M 1656 506 
L 1656 -1331 
L 538 -1331 
L 538 3500 
L 1656 3500 
L 1656 2988 
Q 1888 3294 2169 3439 
Q 2450 3584 2816 3584 
Q 3463 3584 3878 3070 
Q 4294 2556 4294 1747 
Q 4294 938 3878 423 
Q 3463 -91 2816 -91 
Q 2450 -91 2169 54 
Q 1888 200 1656 506 
z
M 2400 2772 
Q 2041 2772 1848 2508 
Q 1656 2244 1656 1747 
Q 1656 1250 1848 986 
Q 2041 722 2400 722 
Q 2759 722 2948 984 
Q 3138 1247 3138 1747 
Q 3138 2247 2948 2509 
Q 2759 2772 2400 2772 
z
" transform="scale(0.015625)"/>
      <path id="DejaVuSans-Bold-20" transform="scale(0.015625)"/>
      <path id="DejaVuSans-Bold-54" d="M 31 4666 
L 4331 4666 
L 4331 3756 
L 2784 3756 
L 2784 0 
L 1581 0 
L 1581 3756 
L 31 3756 
L 31 4666 
z
" transform="scale(0.015625)"/>
      <path id="DejaVuSans-Bold-61" d="M 2106 1575 
Q 1756 1575 1579 1456 
Q 1403 1338 1403 1106 
Q 1403 894 1545 773 
Q 1688 653 1941 653 
Q 2256 653 2472 879 
Q 2688 1106 2688 1447 
L 2688 1575 
L 2106 1575 
z
M 3816 1997 
L 3816 0 
L 2688 0 
L 2688 519 
Q 2463 200 2181 54 
Q 1900 -91 1497 -91 
Q 953 -91 614 226 
Q 275 544 275 1050 
Q 275 1666 698 1953 
Q 1122 2241 2028 2241 
L 2688 2241 
L 2688 2328 
Q 2688 2594 2478 2717 
Q 2269 2841 1825 2841 
Q 1466 2841 1156 2769 
Q 847 2697 581 2553 
L 581 3406 
Q 941 3494 1303 3539 
Q 1666 3584 2028 3584 
Q 2975 3584 3395 3211 
Q 3816 2838 3816 1997 
z
" transform="scale(0.015625)"/>
      <path id="DejaVuSans-Bold-69" d="M 538 3500 
L 1656 3500 
L 1656 0 
L 538 0 
L 538 3500 
z
M 538 4863 
L 1656 4863 
L 1656 3950 
L 538 3950 
L 538 4863 
z
" transform="scale(0.015625)"/>
      <path id="DejaVuSans-Bold-6e" d="M 4056 2131 
L 4056 0 
L 2931 0 
L 2931 347 
L 2931 1631 
Q 2931 2084 2911 2256 
Q 2891 2428 2841 2509 
Q 2775 2619 2662 2680 
Q 2550 2741 2406 2741 
Q 2056 2741 1856 2470 
Q 1656 2200 1656 1722 
L 1656 0 
L 538 0 
L 538 3500 
L 1656 3500 
L 1656 2988 
Q 1909 3294 2193 3439 
Q 2478 3584 2822 3584 
Q 3428 3584 3742 3212 
Q 4056 2841 4056 2131 
z
" transform="scale(0.015625)"/>
      <path id="DejaVuSans-Bold-67" d="M 2919 594 
Q 2688 288 2409 144 
Q 2131 0 1766 0 
Q 1125 0 706 504 
Q 288 1009 288 1791 
Q 288 2575 706 3076 
Q 1125 3578 1766 3578 
Q 2131 3578 2409 3434 
Q 2688 3291 2919 2981 
L 2919 3500 
L 4044 3500 
L 4044 353 
Q 4044 -491 3511 -936 
Q 2978 -1381 1966 -1381 
Q 1638 -1381 1331 -1331 
Q 1025 -1281 716 -1178 
L 716 -306 
Q 1009 -475 1290 -558 
Q 1572 -641 1856 -641 
Q 2406 -641 2662 -400 
Q 2919 -159 2919 353 
L 2919 594 
z
M 2181 2772 
Q 1834 2772 1640 2515 
Q 1447 2259 1447 1791 
Q 1447 1309 1634 1061 
Q 1822 813 2181 813 
Q 2531 813 2725 1069 
Q 2919 1325 2919 1791 
Q 2919 2259 2725 2515 
Q 2531 2772 2181 2772 
z
" transform="scale(0.015625)"/>
      <path id="DejaVuSans-Bold-6d" d="M 3781 2919 
Q 3994 3244 4286 3414 
Q 4578 3584 4928 3584 
Q 5531 3584 5847 3212 
Q 6163 2841 6163 2131 
L 6163 0 
L 5038 0 
L 5038 1825 
Q 5041 1866 5042 1909 
Q 5044 1953 5044 2034 
Q 5044 2406 4934 2573 
Q 4825 2741 4581 2741 
Q 4263 2741 4089 2478 
Q 3916 2216 3909 1719 
L 3909 0 
L 2784 0 
L 2784 1825 
Q 2784 2406 2684 2573 
Q 2584 2741 2328 2741 
Q 2006 2741 1831 2477 
Q 1656 2213 1656 1722 
L 1656 0 
L 531 0 
L 531 3500 
L 1656 3500 
L 1656 2988 
Q 1863 3284 2130 3434 
Q 2397 3584 2719 3584 
Q 3081 3584 3359 3409 
Q 3638 3234 3781 2919 
z
" transform="scale(0.015625)"/>
     </defs>
     <use xlink:href="#DejaVuSans-Bold-50"/>
     <use xlink:href="#DejaVuSans-Bold-65" transform="translate(73.291016 0)"/>
     <use xlink:href="#DejaVuSans-Bold-72" transform="translate(141.113281 0)"/>
     <use xlink:href="#DejaVuSans-Bold-2d" transform="translate(190.429688 0)"/>
     <use xlink:href="#DejaVuSans-Bold-53" transform="translate(231.933594 0)"/>
     <use xlink:href="#DejaVuSans-Bold-74" transform="translate(303.955078 0)"/>
     <use xlink:href="#DejaVuSans-Bold-65" transform="translate(351.757812 0)"/>
     <use xlink:href="#DejaVuSans-Bold-70" transform="translate(419.580078 0)"/>
     <use xlink:href="#DejaVuSans-Bold-20" transform="translate(491.162109 0)"/>
     <use xlink:href="#DejaVuSans-Bold-54" transform="translate(525.976562 0)"/>
     <use xlink:href="#DejaVuSans-Bold-72" transform="translate(583.189453 0)"/>
     <use xlink:href="#DejaVuSans-Bold-61" transform="translate(632.505859 0)"/>
     <use xlink:href="#DejaVuSans-Bold-69" transform="translate(699.986328 0)"/>
     <use xlink:href="#DejaVuSans-Bold-6e" transform="translate(734.263672 0)"/>
     <use xlink:href="#DejaVuSans-Bold-69" transform="translate(805.455078 0)"/>
     <use xlink:href="#DejaVuSans-Bold-6e" transform="translate(839.732422 0)"/>
     <use xlink:href="#DejaVuSans-Bold-67" transform="translate(910.923828 0)"/>
     <use xlink:href="#DejaVuSans-Bold-20" transform="translate(982.505859 0)"/>
     <use xlink:href="#DejaVuSans-Bold-54" transform="translate(1017.320312 0)"/>
     <use xlink:href="#DejaVuSans-Bold-69" transform="translate(1085.533203 0)"/>
     <use xlink:href="#DejaVuSans-Bold-6d" transform="translate(1119.810547 0)"/>
     <use xlink:href="#DejaVuSans-Bold-65" transform="translate(1224.009766 0)"/>
    </g>
   </g>
   <g id="legend_1">
    <g id="patch_7">
     <path d="M 606.45125 75.872187 
L 705.13875 75.872187 
Q 707.13875 75.872187 707.13875 73.872187 
L 707.13875 30.837812 
Q 707.13875 28.837812 705.13875 28.837812 
L 606.45125 28.837812 
Q 604.45125 28.837812 604.45125 30.837812 
L 604.45125 73.872187 
Q 604.45125 75.872187 606.45125 75.872187 
z
" style="fill: #161b22; opacity: 0.8; stroke: #21262d; stroke-linejoin: miter"/>
    </g>
    <g id="line2d_35">
     <path d="M 608.45125 36.93625 
L 618.45125 36.93625 
L 628.45125 36.93625 
" style="fill: none; stroke: #00d4ff; stroke-opacity: 0.9; stroke-width: 1.5; stroke-linecap: square"/>
    </g>
    <g id="text_18">
     <!-- LoRA -->
     <g style="fill: #c9d1d9" transform="translate(636.45125 40.43625) scale(0.1 -0.1)">
      <defs>
       <path id="DejaVuSans-4c" d="M 628 4666 
L 1259 4666 
L 1259 531 
L 3531 531 
L 3531 0 
L 628 0 
L 628 4666 
z
" transform="scale(0.015625)"/>
       <path id="DejaVuSans-52" d="M 2841 2188 
Q 3044 2119 3236 1894 
Q 3428 1669 3622 1275 
L 4263 0 
L 3584 0 
L 2988 1197 
Q 2756 1666 2539 1819 
Q 2322 1972 1947 1972 
L 1259 1972 
L 1259 0 
L 628 0 
L 628 4666 
L 2053 4666 
Q 2853 4666 3247 4331 
Q 3641 3997 3641 3322 
Q 3641 2881 3436 2590 
Q 3231 2300 2841 2188 
z
M 1259 4147 
L 1259 2491 
L 2053 2491 
Q 2509 2491 2742 2702 
Q 2975 2913 2975 3322 
Q 2975 3731 2742 3939 
Q 2509 4147 2053 4147 
L 1259 4147 
z
" transform="scale(0.015625)"/>
       <path id="DejaVuSans-41" d="M 2188 4044 
L 1331 1722 
L 3047 1722 
L 2188 4044 
z
M 1831 4666 
L 2547 4666 
L 4325 0 
L 3669 0 
L 3244 1197 
L 1141 1197 
L 716 0 
L 50 0 
L 1831 4666 
z
" transform="scale(0.015625)"/>
      </defs>
      <use xlink:href="#DejaVuSans-4c"/>
      <use xlink:href="#DejaVuSans-6f" transform="translate(53.962891 0)"/>
      <use xlink:href="#DejaVuSans-52" transform="translate(115.144531 0)"/>
      <use xlink:href="#DejaVuSans-41" transform="translate(180.626953 0)"/>
     </g>
    </g>
    <g id="line2d_36">
     <path d="M 608.45125 51.614375 
L 618.45125 51.614375 
L 628.45125 51.614375 
" style="fill: none; stroke: #ff79c6; stroke-opacity: 0.9; stroke-width: 1.5; stroke-linecap: square"/>
    </g>
    <g id="text_19">
     <!-- QLoRA -->
     <g style="fill: #c9d1d9" transform="translate(636.45125 55.114375) scale(0.1 -0.1)">
      <defs>
       <path id="DejaVuSans-51" d="M 2522 4238 
Q 1834 4238 1429 3725 
Q 1025 3213 1025 2328 
Q 1025 1447 1429 934 
Q 1834 422 2522 422 
Q 3209 422 3611 934 
Q 4013 1447 4013 2328 
Q 4013 3213 3611 3725 
Q 3209 4238 2522 4238 
z
M 3406 84 
L 4238 -825 
L 3475 -825 
L 2784 -78 
Q 2681 -84 2626 -87 
Q 2572 -91 2522 -91 
Q 1538 -91 948 567 
Q 359 1225 359 2328 
Q 359 3434 948 4092 
Q 1538 4750 2522 4750 
Q 3503 4750 4090 4092 
Q 4678 3434 4678 2328 
Q 4678 1516 4351 937 
Q 4025 359 3406 84 
z
" transform="scale(0.015625)"/>
      </defs>
      <use xlink:href="#DejaVuSans-51"/>
      <use xlink:href="#DejaVuSans-4c" transform="translate(78.710938 0)"/>
      <use xlink:href="#DejaVuSans-6f" transform="translate(132.673828 0)"/>
      <use xlink:href="#DejaVuSans-52" transform="translate(193.855469 0)"/>
      <use xlink:href="#DejaVuSans-41" transform="translate(259.337891 0)"/>
     </g>
    </g>
    <g id="line2d_37">
     <path d="M 608.45125 66.2925 
L 618.45125 66.2925 
L 628.45125 66.2925 
" style="fill: none; stroke: #f1fa8c; stroke-opacity: 0.9; stroke-width: 1.5; stroke-linecap: square"/>
    </g>
    <g id="text_20">
     <!-- Full Fine-Tune -->
     <g style="fill: #c9d1d9" transform="translate(636.45125 69.7925) scale(0.1 -0.1)">
      <defs>
       <path id="DejaVuSans-46" d="M 628 4666 
L 3309 4666 
L 3309 4134 
L 1259 4134 
L 1259 2759 
L 3109 2759 
L 3109 2228 
L 1259 2228 
L 1259 0 
L 628 0 
L 628 4666 
z
" transform="scale(0.015625)"/>
       <path id="DejaVuSans-75" d="M 544 1381 
L 544 3500 
L 1119 3500 
L 1119 1403 
Q 1119 906 1312 657 
Q 1506 409 1894 409 
Q 2359 409 2629 706 
Q 2900 1003 2900 1516 
L 2900 3500 
L 3475 3500 
L 3475 0 
L 2900 0 
L 2900 538 
Q 2691 219 2414 64 
Q 2138 -91 1772 -91 
Q 1169 -91 856 284 
Q 544 659 544 1381 
z
M 1991 3584 
L 1991 3584 
z
" transform="scale(0.015625)"/>
       <path id="DejaVuSans-6c" d="M 603 4863 
L 1178 4863 
L 1178 0 
L 603 0 
L 603 4863 
z
" transform="scale(0.015625)"/>
       <path id="DejaVuSans-2d" d="M 313 2009 
L 1997 2009 
L 1997 1497 
L 313 1497 
L 313 2009 
z
" transform="scale(0.015625)"/>
      </defs>
      <use xlink:href="#DejaVuSans-46"/>
      <use xlink:href="#DejaVuSans-75" transform="translate(52.019531 0)"/>
      <use xlink:href="#DejaVuSans-6c" transform="translate(115.398438 0)"/>
      <use xlink:href="#DejaVuSans-6c" transform="translate(143.181641 0)"/>
      <use xlink:href="#DejaVuSans-20" transform="translate(170.964844 0)"/>
      <use xlink:href="#DejaVuSans-46" transform="translate(202.751953 0)"/>
      <use xlink:href="#DejaVuSans-69" transform="translate(253.021484 0)"/>
      <use xlink:href="#DejaVuSans-6e" transform="translate(280.804688 0)"/>
      <use xlink:href="#DejaVuSans-65" transform="translate(344.183594 0)"/>
      <use xlink:href="#DejaVuSans-2d" transform="translate(405.707031 0)"/>
      <use xlink:href="#DejaVuSans-54" transform="translate(432.666016 0)"/>
      <use xlink:href="#DejaVuSans-75" transform="translate(478.625 0)"/>
      <use xlink:href="#DejaVuSans-6e" transform="translate(542.003906 0)"/>
      <use xlink:href="#DejaVuSans-65" transform="translate(605.382812 0)"/>
     </g>
    </g>
   </g>
  </g>
 </g>
 <defs>
  <clipPath id="p546b1428a9">
   <rect x="42.53875" y="23.837812" width="669.6" height="277.2"/>
  </clipPath>
 </defs>
</svg>
